<?xml version="1.0" encoding="utf-8" standalone="no"?>
<!DOCTYPE svg PUBLIC "-//W3C//DTD SVG 1.1//EN"
  "http://www.w3.org/Graphics/SVG/1.1/DTD/svg11.dtd">
<svg xmlns:xlink="http://www.w3.org/1999/xlink" width="581.2pt" height="437.2pt" viewBox="0 0 581.2 437.2" xmlns="http://www.w3.org/2000/svg" version="1.1">
 <metadata>
  <rdf:RDF xmlns:dc="http://purl.org/dc/elements/1.1/" xmlns:cc="http://creativecommons.org/ns#" xmlns:rdf="http://www.w3.org/1999/02/22-rdf-syntax-ns#">
   <cc:Work>
    <dc:type rdf:resource="http://purl.org/dc/dcmitype/StillImage"/>
    <dc:date>2026-07-08T09:51:44.160151</dc:date>
    <dc:format>image/svg+xml</dc:format>
    <dc:creator>
     <cc:Agent>
      <dc:title>Matplotlib v3.11.0, https://matplotlib.org/</dc:title>
     </cc:Agent>
    </dc:creator>
   </cc:Work>
  </rdf:RDF>
 </metadata>
 <defs>
  <style type="text/css">*{stroke-linejoin: round; stroke-linecap: butt}</style>
 </defs>
 <g id="figure_1">
  <g id="patch_1">
   <path d="M 0 437.2 
L 581.2 437.2 
L 581.2 0 
L 0 0 
z
" style="fill: #ffffff"/>
  </g>
  <g id="axes_1">
   <g id="LineCollection_1">
    <path d="M 323.375922 369.105715 
L 346.452634 330.577418 
" clip-path="url(#p919fee1e35)" style="fill: none; stroke: #64748b; stroke-opacity: 0.75"/>
    <path d="M 323.375922 369.105715 
L 290.076449 384.745818 
" clip-path="url(#p919fee1e35)" style="fill: none; stroke: #64748b; stroke-opacity: 0.75"/>
    <path d="M 323.375922 369.105715 
L 297.935533 396.28595 
" clip-path="url(#p919fee1e35)" style="fill: none; stroke: #64748b; stroke-opacity: 0.75"/>
    <path d="M 354.80397 287.77844 
L 346.452634 330.577418 
" clip-path="url(#p919fee1e35)" style="fill: none; stroke: #64748b; stroke-opacity: 0.75"/>
    <path d="M 354.80397 287.77844 
L 351.426572 242.691858 
" clip-path="url(#p919fee1e35)" style="fill: none; stroke: #64748b; stroke-opacity: 0.75"/>
    <path d="M 200.184588 260.756689 
L 268.007973 227.323339 
" clip-path="url(#p919fee1e35)" style="fill: none; stroke: #64748b; stroke-opacity: 0.75"/>
    <path d="M 200.184588 260.756689 
L 177.636619 301.683311 
" clip-path="url(#p919fee1e35)" style="fill: none; stroke: #64748b; stroke-opacity: 0.75"/>
    <path d="M 200.184588 260.756689 
L 137.897303 266.875915 
" clip-path="url(#p919fee1e35)" style="fill: none; stroke: #64748b; stroke-opacity: 0.75"/>
    <path d="M 438.362104 202.857229 
L 351.426572 242.691858 
" clip-path="url(#p919fee1e35)" style="fill: none; stroke: #64748b; stroke-opacity: 0.75"/>
    <path d="M 438.362104 202.857229 
L 268.007973 227.323339 
" clip-path="url(#p919fee1e35)" style="fill: none; stroke: #64748b; stroke-opacity: 0.75"/>
    <path d="M 438.362104 202.857229 
L 388.653912 151.876966 
" clip-path="url(#p919fee1e35)" style="fill: none; stroke: #64748b; stroke-opacity: 0.75"/>
    <path d="M 438.362104 202.857229 
L 363.941506 158.750283 
" clip-path="url(#p919fee1e35)" style="fill: none; stroke: #64748b; stroke-opacity: 0.75"/>
    <path d="M 397.797229 121.070797 
L 363.941506 158.750283 
" clip-path="url(#p919fee1e35)" style="fill: none; stroke: #64748b; stroke-opacity: 0.75"/>
    <path d="M 397.797229 121.070797 
L 461.097558 116.218042 
" clip-path="url(#p919fee1e35)" style="fill: none; stroke: #64748b; stroke-opacity: 0.75"/>
    <path d="M 397.797229 121.070797 
L 376.504278 84.88607 
" clip-path="url(#p919fee1e35)" style="fill: none; stroke: #64748b; stroke-opacity: 0.75"/>
    <path d="M 461.097558 116.218042 
L 462.428127 99.971958 
" clip-path="url(#p919fee1e35)" style="fill: none; stroke: #64748b; stroke-opacity: 0.75"/>
    <path d="M 461.097558 116.218042 
L 512.397424 105.404793 
" clip-path="url(#p919fee1e35)" style="fill: none; stroke: #64748b; stroke-opacity: 0.75"/>
    <path d="M 376.504278 84.88607 
L 373.299905 53.090683 
" clip-path="url(#p919fee1e35)" style="fill: none; stroke: #64748b; stroke-opacity: 0.75"/>
    <path d="M 402.556901 40.91405 
L 422.780091 66.988895 
" clip-path="url(#p919fee1e35)" style="fill: none; stroke: #64748b; stroke-opacity: 0.75"/>
    <path d="M 402.556901 40.91405 
L 373.299905 53.090683 
" clip-path="url(#p919fee1e35)" style="fill: none; stroke: #64748b; stroke-opacity: 0.75"/>
    <path d="M 431.507128 105.195572 
L 388.653912 151.876966 
" clip-path="url(#p919fee1e35)" style="fill: none; stroke: #64748b; stroke-opacity: 0.75"/>
    <path d="M 431.507128 105.195572 
L 422.780091 66.988895 
" clip-path="url(#p919fee1e35)" style="fill: none; stroke: #64748b; stroke-opacity: 0.75"/>
    <path d="M 431.507128 105.195572 
L 485.303899 86.197754 
" clip-path="url(#p919fee1e35)" style="fill: none; stroke: #64748b; stroke-opacity: 0.75"/>
    <path d="M 431.507128 105.195572 
L 462.428127 99.971958 
" clip-path="url(#p919fee1e35)" style="fill: none; stroke: #64748b; stroke-opacity: 0.75"/>
    <path d="M 527.790083 84.376732 
L 485.303899 86.197754 
" clip-path="url(#p919fee1e35)" style="fill: none; stroke: #64748b; stroke-opacity: 0.75"/>
    <path d="M 527.790083 84.376732 
L 512.397424 105.404793 
" clip-path="url(#p919fee1e35)" style="fill: none; stroke: #64748b; stroke-opacity: 0.75"/>
    <path d="M 251.873224 390.267883 
L 290.076449 384.745818 
" clip-path="url(#p919fee1e35)" style="fill: none; stroke: #64748b; stroke-opacity: 0.75"/>
    <path d="M 251.873224 390.267883 
L 297.935533 396.28595 
" clip-path="url(#p919fee1e35)" style="fill: none; stroke: #64748b; stroke-opacity: 0.75"/>
    <path d="M 251.873224 390.267883 
L 199.811406 372.182364 
" clip-path="url(#p919fee1e35)" style="fill: none; stroke: #64748b; stroke-opacity: 0.75"/>
    <path d="M 159.340365 341.835324 
L 177.636619 301.683311 
" clip-path="url(#p919fee1e35)" style="fill: none; stroke: #64748b; stroke-opacity: 0.75"/>
    <path d="M 159.340365 341.835324 
L 199.811406 372.182364 
" clip-path="url(#p919fee1e35)" style="fill: none; stroke: #64748b; stroke-opacity: 0.75"/>
    <path d="M 159.340365 341.835324 
L 103.606375 344.593361 
" clip-path="url(#p919fee1e35)" style="fill: none; stroke: #64748b; stroke-opacity: 0.75"/>
    <path d="M 60.513587 332.1038 
L 103.606375 344.593361 
" clip-path="url(#p919fee1e35)" style="fill: none; stroke: #64748b; stroke-opacity: 0.75"/>
    <path d="M 60.513587 332.1038 
L 53.409917 304.713991 
" clip-path="url(#p919fee1e35)" style="fill: none; stroke: #64748b; stroke-opacity: 0.75"/>
    <path d="M 85.670932 281.126832 
L 53.409917 304.713991 
" clip-path="url(#p919fee1e35)" style="fill: none; stroke: #64748b; stroke-opacity: 0.75"/>
    <path d="M 85.670932 281.126832 
L 137.897303 266.875915 
" clip-path="url(#p919fee1e35)" style="fill: none; stroke: #64748b; stroke-opacity: 0.75"/>
   </g>
   <g id="PathCollection_1">
    <defs>
     <path id="m3079e6b399" d="M 0 7.416198 
C 1.966799 7.416198 3.853307 6.634781 5.244044 5.244044 
C 6.634781 3.853307 7.416198 1.966799 7.416198 0 
C 7.416198 -1.966799 6.634781 -3.853307 5.244044 -5.244044 
C 3.853307 -6.634781 1.966799 -7.416198 0 -7.416198 
C -1.966799 -7.416198 -3.853307 -6.634781 -5.244044 -5.244044 
C -6.634781 -3.853307 -7.416198 -1.966799 -7.416198 0 
C -7.416198 1.966799 -6.634781 3.853307 -5.244044 5.244044 
C -3.853307 6.634781 -1.966799 7.416198 0 7.416198 
z
" style="stroke: #111827; stroke-width: 0.5"/>
    </defs>
    <g clip-path="url(#p919fee1e35)">
     <use xlink:href="#m3079e6b399" x="354.80397" y="287.77844" style="fill: #d9d9d9; stroke: #111827; stroke-width: 0.5"/>
     <use xlink:href="#m3079e6b399" x="323.375922" y="369.105715" style="fill: #d9d9d9; stroke: #111827; stroke-width: 0.5"/>
     <use xlink:href="#m3079e6b399" x="85.670932" y="281.126832" style="fill: #d9d9d9; stroke: #111827; stroke-width: 0.5"/>
     <use xlink:href="#m3079e6b399" x="159.340365" y="341.835324" style="fill: #d9d9d9; stroke: #111827; stroke-width: 0.5"/>
     <use xlink:href="#m3079e6b399" x="200.184588" y="260.756689" style="fill: #d9d9d9; stroke: #111827; stroke-width: 0.5"/>
     <use xlink:href="#m3079e6b399" x="60.513587" y="332.1038" style="fill: #d9d9d9; stroke: #111827; stroke-width: 0.5"/>
     <use xlink:href="#m3079e6b399" x="251.873224" y="390.267883" style="fill: #d9d9d9; stroke: #111827; stroke-width: 0.5"/>
     <use xlink:href="#m3079e6b399" x="351.426572" y="242.691858" style="fill: #d9d9d9; stroke: #111827; stroke-width: 0.5"/>
     <use xlink:href="#m3079e6b399" x="346.452634" y="330.577418" style="fill: #d9d9d9; stroke: #111827; stroke-width: 0.5"/>
     <use xlink:href="#m3079e6b399" x="177.636619" y="301.683311" style="fill: #d9d9d9; stroke: #111827; stroke-width: 0.5"/>
     <use xlink:href="#m3079e6b399" x="199.811406" y="372.182364" style="fill: #d9d9d9; stroke: #111827; stroke-width: 0.5"/>
     <use xlink:href="#m3079e6b399" x="297.935533" y="396.28595" style="fill: #d9d9d9; stroke: #111827; stroke-width: 0.5"/>
     <use xlink:href="#m3079e6b399" x="290.076449" y="384.745818" style="fill: #d9d9d9; stroke: #111827; stroke-width: 0.5"/>
     <use xlink:href="#m3079e6b399" x="268.007973" y="227.323339" style="fill: #d9d9d9; stroke: #111827; stroke-width: 0.5"/>
     <use xlink:href="#m3079e6b399" x="103.606375" y="344.593361" style="fill: #d9d9d9; stroke: #111827; stroke-width: 0.5"/>
     <use xlink:href="#m3079e6b399" x="137.897303" y="266.875915" style="fill: #d9d9d9; stroke: #111827; stroke-width: 0.5"/>
     <use xlink:href="#m3079e6b399" x="53.409917" y="304.713991" style="fill: #d9d9d9; stroke: #111827; stroke-width: 0.5"/>
    </g>
   </g>
   <g id="PathCollection_2">
    <g clip-path="url(#p919fee1e35)">
     <use xlink:href="#m3079e6b399" x="461.097558" y="116.218042" style="fill: #d9d9d9; stroke: #111827; stroke-width: 0.5"/>
     <use xlink:href="#m3079e6b399" x="397.797229" y="121.070797" style="fill: #d9d9d9; stroke: #111827; stroke-width: 0.5"/>
     <use xlink:href="#m3079e6b399" x="376.504278" y="84.88607" style="fill: #d9d9d9; stroke: #111827; stroke-width: 0.5"/>
     <use xlink:href="#m3079e6b399" x="527.790083" y="84.376732" style="fill: #d9d9d9; stroke: #111827; stroke-width: 0.5"/>
     <use xlink:href="#m3079e6b399" x="485.303899" y="86.197754" style="fill: #d9d9d9; stroke: #111827; stroke-width: 0.5"/>
     <use xlink:href="#m3079e6b399" x="512.397424" y="105.404793" style="fill: #d9d9d9; stroke: #111827; stroke-width: 0.5"/>
     <use xlink:href="#m3079e6b399" x="402.556901" y="40.91405" style="fill: #d9d9d9; stroke: #111827; stroke-width: 0.5"/>
     <use xlink:href="#m3079e6b399" x="422.780091" y="66.988895" style="fill: #d9d9d9; stroke: #111827; stroke-width: 0.5"/>
     <use xlink:href="#m3079e6b399" x="363.941506" y="158.750283" style="fill: #d9d9d9; stroke: #111827; stroke-width: 0.5"/>
     <use xlink:href="#m3079e6b399" x="431.507128" y="105.195572" style="fill: #d9d9d9; stroke: #111827; stroke-width: 0.5"/>
     <use xlink:href="#m3079e6b399" x="373.299905" y="53.090683" style="fill: #d9d9d9; stroke: #111827; stroke-width: 0.5"/>
     <use xlink:href="#m3079e6b399" x="388.653912" y="151.876966" style="fill: #d9d9d9; stroke: #111827; stroke-width: 0.5"/>
     <use xlink:href="#m3079e6b399" x="462.428127" y="99.971958" style="fill: #d9d9d9; stroke: #111827; stroke-width: 0.5"/>
    </g>
   </g>
   <g id="PathCollection_3">
    <defs>
     <path id="m14a2e6b5fd" d="M 0 8.062258 
C 2.138136 8.062258 4.188987 7.212767 5.700877 5.700877 
C 7.212767 4.188987 8.062258 2.138136 8.062258 0 
C 8.062258 -2.138136 7.212767 -4.188987 5.700877 -5.700877 
C 4.188987 -7.212767 2.138136 -8.062258 0 -8.062258 
C -2.138136 -8.062258 -4.188987 -7.212767 -5.700877 -5.700877 
C -7.212767 -4.188987 -8.062258 -2.138136 -8.062258 0 
C -8.062258 2.138136 -7.212767 4.188987 -5.700877 5.700877 
C -4.188987 7.212767 -2.138136 8.062258 0 8.062258 
z
" style="stroke: #111827"/>
    </defs>
    <g clip-path="url(#p919fee1e35)">
     <use xlink:href="#m14a2e6b5fd" x="438.362104" y="202.857229" style="fill: #dc2626; stroke: #111827"/>
    </g>
   </g>
  </g>
 </g>
 <defs>
  <clipPath id="p919fee1e35">
   <rect x="3.6" y="3.6" width="574" height="430"/>
  </clipPath>
 </defs>
</svg>
