<?xml version="1.0" encoding="utf-8" standalone="no"?>
<!DOCTYPE svg PUBLIC "-//W3C//DTD SVG 1.1//EN"
  "http://www.w3.org/Graphics/SVG/1.1/DTD/svg11.dtd">
<svg xmlns:xlink="http://www.w3.org/1999/xlink" width="509.2pt" height="509.2pt" viewBox="0 0 509.2 509.2" xmlns="http://www.w3.org/2000/svg" version="1.1">
 <metadata>
  <rdf:RDF xmlns:dc="http://purl.org/dc/elements/1.1/" xmlns:cc="http://creativecommons.org/ns#" xmlns:rdf="http://www.w3.org/1999/02/22-rdf-syntax-ns#">
   <cc:Work>
    <dc:type rdf:resource="http://purl.org/dc/dcmitype/StillImage"/>
    <dc:date>2026-07-08T10:01:39.708592</dc:date>
    <dc:format>image/svg+xml</dc:format>
    <dc:creator>
     <cc:Agent>
      <dc:title>Matplotlib v3.11.0, https://matplotlib.org/</dc:title>
     </cc:Agent>
    </dc:creator>
   </cc:Work>
  </rdf:RDF>
 </metadata>
 <defs>
  <style type="text/css">*{stroke-linejoin: round; stroke-linecap: butt}</style>
 </defs>
 <g id="figure_1">
  <g id="patch_1">
   <path d="M 0 509.2 
L 509.2 509.2 
L 509.2 0 
L 0 0 
z
" style="fill: #ffffff"/>
  </g>
  <g id="axes_1">
   <g id="LineCollection_1">
    <path d="M 322.046318 462.178422 
L 78.023247 126.30948 
" clip-path="url(#pfc00fba057)" style="fill: none; stroke: #64748b; stroke-opacity: 0.55"/>
    <path d="M 453.991226 165.825307 
L 145.469565 65.580542 
" clip-path="url(#pfc00fba057)" style="fill: none; stroke: #64748b; stroke-opacity: 0.55"/>
    <path d="M 453.991226 165.825307 
L 78.023247 382.89052 
" clip-path="url(#pfc00fba057)" style="fill: none; stroke: #64748b; stroke-opacity: 0.55"/>
    <path d="M 322.046318 47.021578 
L 472.86087 254.6 
" clip-path="url(#pfc00fba057)" style="fill: none; stroke: #64748b; stroke-opacity: 0.55"/>
    <path d="M 231.785527 471.665214 
L 400.645028 92.400564 
" clip-path="url(#pfc00fba057)" style="fill: none; stroke: #64748b; stroke-opacity: 0.55"/>
    <path d="M 231.785527 471.665214 
L 472.86087 254.6 
" clip-path="url(#pfc00fba057)" style="fill: none; stroke: #64748b; stroke-opacity: 0.55"/>
    <path d="M 145.469565 65.580542 
L 472.86087 254.6 
" clip-path="url(#pfc00fba057)" style="fill: none; stroke: #64748b; stroke-opacity: 0.55"/>
    <path d="M 78.023247 126.30948 
L 400.645028 92.400564 
" clip-path="url(#pfc00fba057)" style="fill: none; stroke: #64748b; stroke-opacity: 0.55"/>
    <path d="M 78.023247 126.30948 
L 472.86087 254.6 
" clip-path="url(#pfc00fba057)" style="fill: none; stroke: #64748b; stroke-opacity: 0.55"/>
    <path d="M 400.645028 416.799436 
L 400.645028 92.400564 
" clip-path="url(#pfc00fba057)" style="fill: none; stroke: #64748b; stroke-opacity: 0.55"/>
    <path d="M 400.645028 416.799436 
L 78.023247 382.89052 
" clip-path="url(#pfc00fba057)" style="fill: none; stroke: #64748b; stroke-opacity: 0.55"/>
    <path d="M 400.645028 416.799436 
L 41.108654 299.978986 
" clip-path="url(#pfc00fba057)" style="fill: none; stroke: #64748b; stroke-opacity: 0.55"/>
   </g>
   <g id="LineCollection_2">
    <path d="M 322.046318 462.178422 
L 231.785527 471.665214 
" clip-path="url(#pfc00fba057)" style="fill: none; stroke: #dc2626; stroke-width: 2"/>
    <path d="M 322.046318 462.178422 
L 400.645028 416.799436 
" clip-path="url(#pfc00fba057)" style="fill: none; stroke: #dc2626; stroke-width: 2"/>
    <path d="M 453.991226 165.825307 
L 400.645028 92.400564 
" clip-path="url(#pfc00fba057)" style="fill: none; stroke: #dc2626; stroke-width: 2"/>
    <path d="M 453.991226 165.825307 
L 472.86087 254.6 
" clip-path="url(#pfc00fba057)" style="fill: none; stroke: #dc2626; stroke-width: 2"/>
    <path d="M 322.046318 47.021578 
L 400.645028 92.400564 
" clip-path="url(#pfc00fba057)" style="fill: none; stroke: #dc2626; stroke-width: 2"/>
    <path d="M 322.046318 47.021578 
L 231.785527 37.534786 
" clip-path="url(#pfc00fba057)" style="fill: none; stroke: #dc2626; stroke-width: 2"/>
    <path d="M 231.785527 471.665214 
L 145.469565 443.619458 
" clip-path="url(#pfc00fba057)" style="fill: none; stroke: #dc2626; stroke-width: 2"/>
    <path d="M 145.469565 65.580542 
L 78.023247 126.30948 
" clip-path="url(#pfc00fba057)" style="fill: none; stroke: #dc2626; stroke-width: 2"/>
    <path d="M 145.469565 65.580542 
L 231.785527 37.534786 
" clip-path="url(#pfc00fba057)" style="fill: none; stroke: #dc2626; stroke-width: 2"/>
    <path d="M 78.023247 126.30948 
L 41.108654 209.221014 
" clip-path="url(#pfc00fba057)" style="fill: none; stroke: #dc2626; stroke-width: 2"/>
    <path d="M 400.645028 416.799436 
L 453.991226 343.374693 
" clip-path="url(#pfc00fba057)" style="fill: none; stroke: #dc2626; stroke-width: 2"/>
    <path d="M 41.108654 209.221014 
L 41.108654 299.978986 
" clip-path="url(#pfc00fba057)" style="fill: none; stroke: #dc2626; stroke-width: 2"/>
    <path d="M 78.023247 382.89052 
L 145.469565 443.619458 
" clip-path="url(#pfc00fba057)" style="fill: none; stroke: #dc2626; stroke-width: 2"/>
    <path d="M 78.023247 382.89052 
L 41.108654 299.978986 
" clip-path="url(#pfc00fba057)" style="fill: none; stroke: #dc2626; stroke-width: 2"/>
    <path d="M 453.991226 343.374693 
L 472.86087 254.6 
" clip-path="url(#pfc00fba057)" style="fill: none; stroke: #dc2626; stroke-width: 2"/>
   </g>
   <g id="PathCollection_1">
    <defs>
     <path id="m11584c5704" d="M 0 6.324555 
C 1.677292 6.324555 3.286112 5.65816 4.472136 4.472136 
C 5.65816 3.286112 6.324555 1.677292 6.324555 0 
C 6.324555 -1.677292 5.65816 -3.286112 4.472136 -4.472136 
C 3.286112 -5.65816 1.677292 -6.324555 0 -6.324555 
C -1.677292 -6.324555 -3.286112 -5.65816 -4.472136 -4.472136 
C -5.65816 -3.286112 -6.324555 -1.677292 -6.324555 0 
C -6.324555 1.677292 -5.65816 3.286112 -4.472136 4.472136 
C -3.286112 5.65816 -1.677292 6.324555 0 6.324555 
z
" style="stroke: #111827; stroke-width: 0.4"/>
    </defs>
    <g clip-path="url(#pfc00fba057)">
     <use xlink:href="#m11584c5704" x="322.046318" y="462.178422" style="fill: #d9d9d9; stroke: #111827; stroke-width: 0.4"/>
     <use xlink:href="#m11584c5704" x="453.991226" y="165.825307" style="fill: #d9d9d9; stroke: #111827; stroke-width: 0.4"/>
     <use xlink:href="#m11584c5704" x="322.046318" y="47.021578" style="fill: #d9d9d9; stroke: #111827; stroke-width: 0.4"/>
     <use xlink:href="#m11584c5704" x="231.785527" y="471.665214" style="fill: #d9d9d9; stroke: #111827; stroke-width: 0.4"/>
     <use xlink:href="#m11584c5704" x="145.469565" y="65.580542" style="fill: #d9d9d9; stroke: #111827; stroke-width: 0.4"/>
     <use xlink:href="#m11584c5704" x="78.023247" y="126.30948" style="fill: #d9d9d9; stroke: #111827; stroke-width: 0.4"/>
     <use xlink:href="#m11584c5704" x="400.645028" y="416.799436" style="fill: #d9d9d9; stroke: #111827; stroke-width: 0.4"/>
     <use xlink:href="#m11584c5704" x="41.108654" y="209.221014" style="fill: #d9d9d9; stroke: #111827; stroke-width: 0.4"/>
     <use xlink:href="#m11584c5704" x="400.645028" y="92.400564" style="fill: #d9d9d9; stroke: #111827; stroke-width: 0.4"/>
     <use xlink:href="#m11584c5704" x="78.023247" y="382.89052" style="fill: #d9d9d9; stroke: #111827; stroke-width: 0.4"/>
     <use xlink:href="#m11584c5704" x="453.991226" y="343.374693" style="fill: #d9d9d9; stroke: #111827; stroke-width: 0.4"/>
     <use xlink:href="#m11584c5704" x="231.785527" y="37.534786" style="fill: #d9d9d9; stroke: #111827; stroke-width: 0.4"/>
     <use xlink:href="#m11584c5704" x="472.86087" y="254.6" style="fill: #d9d9d9; stroke: #111827; stroke-width: 0.4"/>
     <use xlink:href="#m11584c5704" x="145.469565" y="443.619458" style="fill: #d9d9d9; stroke: #111827; stroke-width: 0.4"/>
     <use xlink:href="#m11584c5704" x="41.108654" y="299.978986" style="fill: #d9d9d9; stroke: #111827; stroke-width: 0.4"/>
    </g>
   </g>
  </g>
 </g>
 <defs>
  <clipPath id="pfc00fba057">
   <rect x="3.6" y="3.6" width="502" height="502"/>
  </clipPath>
 </defs>
</svg>
