<?xml version="1.0" encoding="utf-8" standalone="no"?>
<!DOCTYPE svg PUBLIC "-//W3C//DTD SVG 1.1//EN"
  "http://www.w3.org/Graphics/SVG/1.1/DTD/svg11.dtd">
<svg xmlns:xlink="http://www.w3.org/1999/xlink" width="468.31519pt" height="509.2pt" viewBox="0 0 468.31519 509.2" xmlns="http://www.w3.org/2000/svg" version="1.1">
 <metadata>
  <rdf:RDF xmlns:dc="http://purl.org/dc/elements/1.1/" xmlns:cc="http://creativecommons.org/ns#" xmlns:rdf="http://www.w3.org/1999/02/22-rdf-syntax-ns#">
   <cc:Work>
    <dc:type rdf:resource="http://purl.org/dc/dcmitype/StillImage"/>
    <dc:date>2026-07-08T10:01:39.700166</dc:date>
    <dc:format>image/svg+xml</dc:format>
    <dc:creator>
     <cc:Agent>
      <dc:title>Matplotlib v3.11.0, https://matplotlib.org/</dc:title>
     </cc:Agent>
    </dc:creator>
   </cc:Work>
  </rdf:RDF>
 </metadata>
 <defs>
  <style type="text/css">*{stroke-linejoin: round; stroke-linecap: butt}</style>
 </defs>
 <g id="figure_1">
  <g id="patch_1">
   <path d="M 0 509.2 
L 468.31519 509.2 
L 468.31519 0 
L 0 0 
z
" style="fill: #ffffff"/>
  </g>
  <g id="axes_1">
   <g id="LineCollection_1">
    <path d="M 231.597612 356.558376 
L 155.401747 271.635746 
" clip-path="url(#p0c5f1233b8)" style="fill: none; stroke: #64748b; stroke-opacity: 0.55"/>
    <path d="M 334.515328 282.962826 
L 258.37277 177.052515 
" clip-path="url(#p0c5f1233b8)" style="fill: none; stroke: #64748b; stroke-opacity: 0.55"/>
    <path d="M 334.515328 282.962826 
L 305.681354 444.464279 
" clip-path="url(#p0c5f1233b8)" style="fill: none; stroke: #64748b; stroke-opacity: 0.55"/>
    <path d="M 210.456467 148.549617 
L 232.518882 287.769334 
" clip-path="url(#p0c5f1233b8)" style="fill: none; stroke: #64748b; stroke-opacity: 0.55"/>
    <path d="M 346.502867 358.573021 
L 268.528306 271.235485 
" clip-path="url(#p0c5f1233b8)" style="fill: none; stroke: #64748b; stroke-opacity: 0.55"/>
    <path d="M 346.502867 358.573021 
L 232.518882 287.769334 
" clip-path="url(#p0c5f1233b8)" style="fill: none; stroke: #64748b; stroke-opacity: 0.55"/>
    <path d="M 258.37277 177.052515 
L 232.518882 287.769334 
" clip-path="url(#p0c5f1233b8)" style="fill: none; stroke: #64748b; stroke-opacity: 0.55"/>
    <path d="M 155.401747 271.635746 
L 268.528306 271.235485 
" clip-path="url(#p0c5f1233b8)" style="fill: none; stroke: #64748b; stroke-opacity: 0.55"/>
    <path d="M 155.401747 271.635746 
L 232.518882 287.769334 
" clip-path="url(#p0c5f1233b8)" style="fill: none; stroke: #64748b; stroke-opacity: 0.55"/>
    <path d="M 229.001723 418.495386 
L 268.528306 271.235485 
" clip-path="url(#p0c5f1233b8)" style="fill: none; stroke: #64748b; stroke-opacity: 0.55"/>
    <path d="M 229.001723 418.495386 
L 305.681354 444.464279 
" clip-path="url(#p0c5f1233b8)" style="fill: none; stroke: #64748b; stroke-opacity: 0.55"/>
    <path d="M 229.001723 418.495386 
L 135.281915 457.254683 
" clip-path="url(#p0c5f1233b8)" style="fill: none; stroke: #64748b; stroke-opacity: 0.55"/>
   </g>
   <g id="LineCollection_2">
    <path d="M 231.597612 356.558376 
L 346.502867 358.573021 
" clip-path="url(#p0c5f1233b8)" style="fill: none; stroke: #dc2626; stroke-width: 2"/>
    <path d="M 231.597612 356.558376 
L 229.001723 418.495386 
" clip-path="url(#p0c5f1233b8)" style="fill: none; stroke: #dc2626; stroke-width: 2"/>
    <path d="M 334.515328 282.962826 
L 268.528306 271.235485 
" clip-path="url(#p0c5f1233b8)" style="fill: none; stroke: #dc2626; stroke-width: 2"/>
    <path d="M 334.515328 282.962826 
L 232.518882 287.769334 
" clip-path="url(#p0c5f1233b8)" style="fill: none; stroke: #dc2626; stroke-width: 2"/>
    <path d="M 210.456467 148.549617 
L 268.528306 271.235485 
" clip-path="url(#p0c5f1233b8)" style="fill: none; stroke: #dc2626; stroke-width: 2"/>
    <path d="M 210.456467 148.549617 
L 236.327755 47.161983 
" clip-path="url(#p0c5f1233b8)" style="fill: none; stroke: #dc2626; stroke-width: 2"/>
    <path d="M 346.502867 358.573021 
L 424.701062 462.038017 
" clip-path="url(#p0c5f1233b8)" style="fill: none; stroke: #dc2626; stroke-width: 2"/>
    <path d="M 258.37277 177.052515 
L 155.401747 271.635746 
" clip-path="url(#p0c5f1233b8)" style="fill: none; stroke: #dc2626; stroke-width: 2"/>
    <path d="M 258.37277 177.052515 
L 236.327755 47.161983 
" clip-path="url(#p0c5f1233b8)" style="fill: none; stroke: #dc2626; stroke-width: 2"/>
    <path d="M 155.401747 271.635746 
L 43.614128 365.825892 
" clip-path="url(#p0c5f1233b8)" style="fill: none; stroke: #dc2626; stroke-width: 2"/>
    <path d="M 229.001723 418.495386 
L 193.693356 460.1772 
" clip-path="url(#p0c5f1233b8)" style="fill: none; stroke: #dc2626; stroke-width: 2"/>
    <path d="M 43.614128 365.825892 
L 135.281915 457.254683 
" clip-path="url(#p0c5f1233b8)" style="fill: none; stroke: #dc2626; stroke-width: 2"/>
    <path d="M 305.681354 444.464279 
L 424.701062 462.038017 
" clip-path="url(#p0c5f1233b8)" style="fill: none; stroke: #dc2626; stroke-width: 2"/>
    <path d="M 305.681354 444.464279 
L 135.281915 457.254683 
" clip-path="url(#p0c5f1233b8)" style="fill: none; stroke: #dc2626; stroke-width: 2"/>
    <path d="M 193.693356 460.1772 
L 232.518882 287.769334 
" clip-path="url(#p0c5f1233b8)" style="fill: none; stroke: #dc2626; stroke-width: 2"/>
   </g>
   <g id="PathCollection_1">
    <defs>
     <path id="mafa1af8330" d="M 0 6.324555 
C 1.677292 6.324555 3.286112 5.65816 4.472136 4.472136 
C 5.65816 3.286112 6.324555 1.677292 6.324555 0 
C 6.324555 -1.677292 5.65816 -3.286112 4.472136 -4.472136 
C 3.286112 -5.65816 1.677292 -6.324555 0 -6.324555 
C -1.677292 -6.324555 -3.286112 -5.65816 -4.472136 -4.472136 
C -5.65816 -3.286112 -6.324555 -1.677292 -6.324555 0 
C -6.324555 1.677292 -5.65816 3.286112 -4.472136 4.472136 
C -3.286112 5.65816 -1.677292 6.324555 0 6.324555 
z
" style="stroke: #111827; stroke-width: 0.4"/>
    </defs>
    <g clip-path="url(#p0c5f1233b8)">
     <use xlink:href="#mafa1af8330" x="231.597612" y="356.558376" style="fill: #d9d9d9; stroke: #111827; stroke-width: 0.4"/>
     <use xlink:href="#mafa1af8330" x="334.515328" y="282.962826" style="fill: #d9d9d9; stroke: #111827; stroke-width: 0.4"/>
     <use xlink:href="#mafa1af8330" x="210.456467" y="148.549617" style="fill: #d9d9d9; stroke: #111827; stroke-width: 0.4"/>
     <use xlink:href="#mafa1af8330" x="346.502867" y="358.573021" style="fill: #d9d9d9; stroke: #111827; stroke-width: 0.4"/>
     <use xlink:href="#mafa1af8330" x="258.37277" y="177.052515" style="fill: #d9d9d9; stroke: #111827; stroke-width: 0.4"/>
     <use xlink:href="#mafa1af8330" x="155.401747" y="271.635746" style="fill: #d9d9d9; stroke: #111827; stroke-width: 0.4"/>
     <use xlink:href="#mafa1af8330" x="229.001723" y="418.495386" style="fill: #d9d9d9; stroke: #111827; stroke-width: 0.4"/>
     <use xlink:href="#mafa1af8330" x="43.614128" y="365.825892" style="fill: #d9d9d9; stroke: #111827; stroke-width: 0.4"/>
     <use xlink:href="#mafa1af8330" x="268.528306" y="271.235485" style="fill: #d9d9d9; stroke: #111827; stroke-width: 0.4"/>
     <use xlink:href="#mafa1af8330" x="305.681354" y="444.464279" style="fill: #d9d9d9; stroke: #111827; stroke-width: 0.4"/>
     <use xlink:href="#mafa1af8330" x="193.693356" y="460.1772" style="fill: #d9d9d9; stroke: #111827; stroke-width: 0.4"/>
     <use xlink:href="#mafa1af8330" x="236.327755" y="47.161983" style="fill: #d9d9d9; stroke: #111827; stroke-width: 0.4"/>
     <use xlink:href="#mafa1af8330" x="232.518882" y="287.769334" style="fill: #d9d9d9; stroke: #111827; stroke-width: 0.4"/>
     <use xlink:href="#mafa1af8330" x="424.701062" y="462.038017" style="fill: #d9d9d9; stroke: #111827; stroke-width: 0.4"/>
     <use xlink:href="#mafa1af8330" x="135.281915" y="457.254683" style="fill: #d9d9d9; stroke: #111827; stroke-width: 0.4"/>
    </g>
   </g>
  </g>
 </g>
 <defs>
  <clipPath id="p0c5f1233b8">
   <rect x="3.6" y="3.6" width="461.11519" height="502"/>
  </clipPath>
 </defs>
</svg>
