<?xml version="1.0" encoding="utf-8" standalone="no"?>
<!DOCTYPE svg PUBLIC "-//W3C//DTD SVG 1.1//EN"
  "http://www.w3.org/Graphics/SVG/1.1/DTD/svg11.dtd">
<svg xmlns:xlink="http://www.w3.org/1999/xlink" width="509.2pt" height="509.2pt" viewBox="0 0 509.2 509.2" xmlns="http://www.w3.org/2000/svg" version="1.1">
 <metadata>
  <rdf:RDF xmlns:dc="http://purl.org/dc/elements/1.1/" xmlns:cc="http://creativecommons.org/ns#" xmlns:rdf="http://www.w3.org/1999/02/22-rdf-syntax-ns#">
   <cc:Work>
    <dc:type rdf:resource="http://purl.org/dc/dcmitype/StillImage"/>
    <dc:date>2026-07-08T10:01:39.812709</dc:date>
    <dc:format>image/svg+xml</dc:format>
    <dc:creator>
     <cc:Agent>
      <dc:title>Matplotlib v3.11.0, https://matplotlib.org/</dc:title>
     </cc:Agent>
    </dc:creator>
   </cc:Work>
  </rdf:RDF>
 </metadata>
 <defs>
  <style type="text/css">*{stroke-linejoin: round; stroke-linecap: butt}</style>
 </defs>
 <g id="figure_1">
  <g id="patch_1">
   <path d="M 0 509.2 
L 509.2 509.2 
L 509.2 0 
L 0 0 
z
" style="fill: #ffffff"/>
  </g>
  <g id="axes_1">
   <g id="LineCollection_1">
    <path d="M 280.908441 471.269502 
L 447.860402 153.169116 
" clip-path="url(#p13ee9dac4a)" style="fill: none; stroke: #64748b; stroke-opacity: 0.55"/>
    <path d="M 177.203629 50.522542 
L 472.86087 254.6 
" clip-path="url(#p13ee9dac4a)" style="fill: none; stroke: #64748b; stroke-opacity: 0.55"/>
    <path d="M 378.586306 434.225174 
L 42.681395 306.833245 
" clip-path="url(#p13ee9dac4a)" style="fill: none; stroke: #64748b; stroke-opacity: 0.55"/>
    <path d="M 472.86087 254.6 
L 91.229393 399.333728 
" clip-path="url(#p13ee9dac4a)" style="fill: none; stroke: #64748b; stroke-opacity: 0.55"/>
   </g>
   <g id="LineCollection_2">
    <path d="M 280.908441 471.269502 
L 177.203629 458.677458 
" clip-path="url(#p13ee9dac4a)" style="fill: none; stroke: #dc2626; stroke-width: 2"/>
    <path d="M 280.908441 471.269502 
L 378.586306 434.225174 
" clip-path="url(#p13ee9dac4a)" style="fill: none; stroke: #dc2626; stroke-width: 2"/>
    <path d="M 280.908441 37.930498 
L 177.203629 50.522542 
" clip-path="url(#p13ee9dac4a)" style="fill: none; stroke: #dc2626; stroke-width: 2"/>
    <path d="M 280.908441 37.930498 
L 378.586306 74.974826 
" clip-path="url(#p13ee9dac4a)" style="fill: none; stroke: #dc2626; stroke-width: 2"/>
    <path d="M 447.860402 356.030884 
L 378.586306 434.225174 
" clip-path="url(#p13ee9dac4a)" style="fill: none; stroke: #dc2626; stroke-width: 2"/>
    <path d="M 447.860402 356.030884 
L 472.86087 254.6 
" clip-path="url(#p13ee9dac4a)" style="fill: none; stroke: #dc2626; stroke-width: 2"/>
    <path d="M 177.203629 50.522542 
L 91.229393 109.866272 
" clip-path="url(#p13ee9dac4a)" style="fill: none; stroke: #dc2626; stroke-width: 2"/>
    <path d="M 447.860402 153.169116 
L 472.86087 254.6 
" clip-path="url(#p13ee9dac4a)" style="fill: none; stroke: #dc2626; stroke-width: 2"/>
    <path d="M 447.860402 153.169116 
L 378.586306 74.974826 
" clip-path="url(#p13ee9dac4a)" style="fill: none; stroke: #dc2626; stroke-width: 2"/>
    <path d="M 177.203629 458.677458 
L 91.229393 399.333728 
" clip-path="url(#p13ee9dac4a)" style="fill: none; stroke: #dc2626; stroke-width: 2"/>
    <path d="M 91.229393 109.866272 
L 42.681395 202.366755 
" clip-path="url(#p13ee9dac4a)" style="fill: none; stroke: #dc2626; stroke-width: 2"/>
    <path d="M 42.681395 306.833245 
L 42.681395 202.366755 
" clip-path="url(#p13ee9dac4a)" style="fill: none; stroke: #dc2626; stroke-width: 2"/>
    <path d="M 42.681395 306.833245 
L 91.229393 399.333728 
" clip-path="url(#p13ee9dac4a)" style="fill: none; stroke: #dc2626; stroke-width: 2"/>
   </g>
   <g id="PathCollection_1">
    <defs>
     <path id="mf40cdfa192" d="M 0 6.324555 
C 1.677292 6.324555 3.286112 5.65816 4.472136 4.472136 
C 5.65816 3.286112 6.324555 1.677292 6.324555 0 
C 6.324555 -1.677292 5.65816 -3.286112 4.472136 -4.472136 
C 3.286112 -5.65816 1.677292 -6.324555 0 -6.324555 
C -1.677292 -6.324555 -3.286112 -5.65816 -4.472136 -4.472136 
C -5.65816 -3.286112 -6.324555 -1.677292 -6.324555 0 
C -6.324555 1.677292 -5.65816 3.286112 -4.472136 4.472136 
C -3.286112 5.65816 -1.677292 6.324555 0 6.324555 
z
" style="stroke: #111827; stroke-width: 0.4"/>
    </defs>
    <g clip-path="url(#p13ee9dac4a)">
     <use xlink:href="#mf40cdfa192" x="280.908441" y="471.269502" style="fill: #d9d9d9; stroke: #111827; stroke-width: 0.4"/>
     <use xlink:href="#mf40cdfa192" x="280.908441" y="37.930498" style="fill: #d9d9d9; stroke: #111827; stroke-width: 0.4"/>
     <use xlink:href="#mf40cdfa192" x="447.860402" y="356.030884" style="fill: #d9d9d9; stroke: #111827; stroke-width: 0.4"/>
     <use xlink:href="#mf40cdfa192" x="177.203629" y="50.522542" style="fill: #d9d9d9; stroke: #111827; stroke-width: 0.4"/>
     <use xlink:href="#mf40cdfa192" x="447.860402" y="153.169116" style="fill: #d9d9d9; stroke: #111827; stroke-width: 0.4"/>
     <use xlink:href="#mf40cdfa192" x="378.586306" y="434.225174" style="fill: #d9d9d9; stroke: #111827; stroke-width: 0.4"/>
     <use xlink:href="#mf40cdfa192" x="177.203629" y="458.677458" style="fill: #d9d9d9; stroke: #111827; stroke-width: 0.4"/>
     <use xlink:href="#mf40cdfa192" x="91.229393" y="109.866272" style="fill: #d9d9d9; stroke: #111827; stroke-width: 0.4"/>
     <use xlink:href="#mf40cdfa192" x="42.681395" y="306.833245" style="fill: #d9d9d9; stroke: #111827; stroke-width: 0.4"/>
     <use xlink:href="#mf40cdfa192" x="42.681395" y="202.366755" style="fill: #d9d9d9; stroke: #111827; stroke-width: 0.4"/>
     <use xlink:href="#mf40cdfa192" x="472.86087" y="254.6" style="fill: #d9d9d9; stroke: #111827; stroke-width: 0.4"/>
     <use xlink:href="#mf40cdfa192" x="378.586306" y="74.974826" style="fill: #d9d9d9; stroke: #111827; stroke-width: 0.4"/>
     <use xlink:href="#mf40cdfa192" x="91.229393" y="399.333728" style="fill: #d9d9d9; stroke: #111827; stroke-width: 0.4"/>
    </g>
   </g>
  </g>
 </g>
 <defs>
  <clipPath id="p13ee9dac4a">
   <rect x="3.6" y="3.6" width="502" height="502"/>
  </clipPath>
 </defs>
</svg>
