<?xml version="1.0" encoding="utf-8" standalone="no"?>
<!DOCTYPE svg PUBLIC "-//W3C//DTD SVG 1.1//EN"
  "http://www.w3.org/Graphics/SVG/1.1/DTD/svg11.dtd">
<svg xmlns:xlink="http://www.w3.org/1999/xlink" width="509.2pt" height="509.2pt" viewBox="0 0 509.2 509.2" xmlns="http://www.w3.org/2000/svg" version="1.1">
 <metadata>
  <rdf:RDF xmlns:dc="http://purl.org/dc/elements/1.1/" xmlns:cc="http://creativecommons.org/ns#" xmlns:rdf="http://www.w3.org/1999/02/22-rdf-syntax-ns#">
   <cc:Work>
    <dc:type rdf:resource="http://purl.org/dc/dcmitype/StillImage"/>
    <dc:date>2026-07-08T10:01:39.795499</dc:date>
    <dc:format>image/svg+xml</dc:format>
    <dc:creator>
     <cc:Agent>
      <dc:title>Matplotlib v3.11.0, https://matplotlib.org/</dc:title>
     </cc:Agent>
    </dc:creator>
   </cc:Work>
  </rdf:RDF>
 </metadata>
 <defs>
  <style type="text/css">*{stroke-linejoin: round; stroke-linecap: butt}</style>
 </defs>
 <g id="figure_1">
  <g id="patch_1">
   <path d="M 0 509.2 
L 509.2 509.2 
L 509.2 0 
L 0 0 
z
" style="fill: #ffffff"/>
  </g>
  <g id="axes_1">
   <g id="LineCollection_1">
    <path d="M 45.180229 193.108807 
L 472.86087 254.6 
" clip-path="url(#pd94e0deedc)" style="fill: none; stroke: #64748b; stroke-opacity: 0.55"/>
    <path d="M 472.86087 254.6 
L 111.669527 419.550559 
" clip-path="url(#pd94e0deedc)" style="fill: none; stroke: #64748b; stroke-opacity: 0.55"/>
    <path d="M 472.86087 254.6 
L 223.53824 38.560711 
" clip-path="url(#pd94e0deedc)" style="fill: none; stroke: #64748b; stroke-opacity: 0.55"/>
    <path d="M 472.86087 254.6 
L 345.268842 56.06293 
" clip-path="url(#pd94e0deedc)" style="fill: none; stroke: #64748b; stroke-opacity: 0.55"/>
    <path d="M 438.212728 136.599265 
L 45.180229 316.091193 
" clip-path="url(#pd94e0deedc)" style="fill: none; stroke: #64748b; stroke-opacity: 0.55"/>
    <path d="M 438.212728 136.599265 
L 111.669527 89.649441 
" clip-path="url(#pd94e0deedc)" style="fill: none; stroke: #64748b; stroke-opacity: 0.55"/>
    <path d="M 223.53824 470.639289 
L 111.669527 89.649441 
" clip-path="url(#pd94e0deedc)" style="fill: none; stroke: #64748b; stroke-opacity: 0.55"/>
    <path d="M 438.212728 372.600735 
L 111.669527 89.649441 
" clip-path="url(#pd94e0deedc)" style="fill: none; stroke: #64748b; stroke-opacity: 0.55"/>
   </g>
   <g id="LineCollection_2">
    <path d="M 45.180229 193.108807 
L 45.180229 316.091193 
" clip-path="url(#pd94e0deedc)" style="fill: none; stroke: #dc2626; stroke-width: 2"/>
    <path d="M 45.180229 193.108807 
L 111.669527 89.649441 
" clip-path="url(#pd94e0deedc)" style="fill: none; stroke: #dc2626; stroke-width: 2"/>
    <path d="M 472.86087 254.6 
L 438.212728 136.599265 
" clip-path="url(#pd94e0deedc)" style="fill: none; stroke: #dc2626; stroke-width: 2"/>
    <path d="M 472.86087 254.6 
L 438.212728 372.600735 
" clip-path="url(#pd94e0deedc)" style="fill: none; stroke: #dc2626; stroke-width: 2"/>
    <path d="M 438.212728 136.599265 
L 345.268842 56.06293 
" clip-path="url(#pd94e0deedc)" style="fill: none; stroke: #dc2626; stroke-width: 2"/>
    <path d="M 45.180229 316.091193 
L 111.669527 419.550559 
" clip-path="url(#pd94e0deedc)" style="fill: none; stroke: #dc2626; stroke-width: 2"/>
    <path d="M 111.669527 419.550559 
L 223.53824 470.639289 
" clip-path="url(#pd94e0deedc)" style="fill: none; stroke: #dc2626; stroke-width: 2"/>
    <path d="M 223.53824 470.639289 
L 345.268842 453.13707 
" clip-path="url(#pd94e0deedc)" style="fill: none; stroke: #dc2626; stroke-width: 2"/>
    <path d="M 345.268842 453.13707 
L 438.212728 372.600735 
" clip-path="url(#pd94e0deedc)" style="fill: none; stroke: #dc2626; stroke-width: 2"/>
    <path d="M 223.53824 38.560711 
L 345.268842 56.06293 
" clip-path="url(#pd94e0deedc)" style="fill: none; stroke: #dc2626; stroke-width: 2"/>
    <path d="M 223.53824 38.560711 
L 111.669527 89.649441 
" clip-path="url(#pd94e0deedc)" style="fill: none; stroke: #dc2626; stroke-width: 2"/>
   </g>
   <g id="PathCollection_1">
    <defs>
     <path id="m3f04493b92" d="M 0 6.324555 
C 1.677292 6.324555 3.286112 5.65816 4.472136 4.472136 
C 5.65816 3.286112 6.324555 1.677292 6.324555 0 
C 6.324555 -1.677292 5.65816 -3.286112 4.472136 -4.472136 
C 3.286112 -5.65816 1.677292 -6.324555 0 -6.324555 
C -1.677292 -6.324555 -3.286112 -5.65816 -4.472136 -4.472136 
C -5.65816 -3.286112 -6.324555 -1.677292 -6.324555 0 
C -6.324555 1.677292 -5.65816 3.286112 -4.472136 4.472136 
C -3.286112 5.65816 -1.677292 6.324555 0 6.324555 
z
" style="stroke: #111827; stroke-width: 0.4"/>
    </defs>
    <g clip-path="url(#pd94e0deedc)">
     <use xlink:href="#m3f04493b92" x="45.180229" y="193.108807" style="fill: #d9d9d9; stroke: #111827; stroke-width: 0.4"/>
     <use xlink:href="#m3f04493b92" x="472.86087" y="254.6" style="fill: #d9d9d9; stroke: #111827; stroke-width: 0.4"/>
     <use xlink:href="#m3f04493b92" x="438.212728" y="136.599265" style="fill: #d9d9d9; stroke: #111827; stroke-width: 0.4"/>
     <use xlink:href="#m3f04493b92" x="45.180229" y="316.091193" style="fill: #d9d9d9; stroke: #111827; stroke-width: 0.4"/>
     <use xlink:href="#m3f04493b92" x="111.669527" y="419.550559" style="fill: #d9d9d9; stroke: #111827; stroke-width: 0.4"/>
     <use xlink:href="#m3f04493b92" x="223.53824" y="470.639289" style="fill: #d9d9d9; stroke: #111827; stroke-width: 0.4"/>
     <use xlink:href="#m3f04493b92" x="345.268842" y="453.13707" style="fill: #d9d9d9; stroke: #111827; stroke-width: 0.4"/>
     <use xlink:href="#m3f04493b92" x="223.53824" y="38.560711" style="fill: #d9d9d9; stroke: #111827; stroke-width: 0.4"/>
     <use xlink:href="#m3f04493b92" x="345.268842" y="56.06293" style="fill: #d9d9d9; stroke: #111827; stroke-width: 0.4"/>
     <use xlink:href="#m3f04493b92" x="438.212728" y="372.600735" style="fill: #d9d9d9; stroke: #111827; stroke-width: 0.4"/>
     <use xlink:href="#m3f04493b92" x="111.669527" y="89.649441" style="fill: #d9d9d9; stroke: #111827; stroke-width: 0.4"/>
    </g>
   </g>
  </g>
 </g>
 <defs>
  <clipPath id="pd94e0deedc">
   <rect x="3.6" y="3.6" width="502" height="502"/>
  </clipPath>
 </defs>
</svg>
