<?xml version="1.0" encoding="utf-8" standalone="no"?>
<!DOCTYPE svg PUBLIC "-//W3C//DTD SVG 1.1//EN"
  "http://www.w3.org/Graphics/SVG/1.1/DTD/svg11.dtd">
<svg xmlns:xlink="http://www.w3.org/1999/xlink" width="576pt" height="576pt" viewBox="0 0 576 576" xmlns="http://www.w3.org/2000/svg" version="1.1">
 <metadata>
  <rdf:RDF xmlns:dc="http://purl.org/dc/elements/1.1/" xmlns:cc="http://creativecommons.org/ns#" xmlns:rdf="http://www.w3.org/1999/02/22-rdf-syntax-ns#">
   <cc:Work>
    <dc:type rdf:resource="http://purl.org/dc/dcmitype/StillImage"/>
    <dc:date>2026-09-15T15:20:39.883760</dc:date>
    <dc:format>image/svg+xml</dc:format>
    <dc:creator>
     <cc:Agent>
      <dc:title>Matplotlib v3.11.0, https://matplotlib.org/</dc:title>
     </cc:Agent>
    </dc:creator>
   </cc:Work>
  </rdf:RDF>
 </metadata>
 <defs>
  <style type="text/css">*{stroke-linejoin: round; stroke-linecap: butt}</style>
 </defs>
 <g id="figure_1">
  <g id="patch_1">
   <path d="M 0 576 
L 576 576 
L 576 0 
L 0 0 
z
" style="fill: #ffffff"/>
  </g>
  <g id="axes_1">
   <g id="LineCollection_1">
    <path d="M 314.092745 308.020233 
L 410.408571 229.486987 
" clip-path="url(#p4aa0238426)" style="fill: none; stroke: #808080; stroke-opacity: 0.7"/>
    <path d="M 314.092745 308.020233 
L 339.29624 423.659988 
" clip-path="url(#p4aa0238426)" style="fill: none; stroke: #808080; stroke-opacity: 0.7"/>
    <path d="M 314.092745 308.020233 
L 239.368051 241.232317 
" clip-path="url(#p4aa0238426)" style="fill: none; stroke: #808080; stroke-opacity: 0.7"/>
    <path d="M 314.092745 308.020233 
L 232.56546 359.435725 
" clip-path="url(#p4aa0238426)" style="fill: none; stroke: #808080; stroke-opacity: 0.7"/>
    <path d="M 481.251014 267.818351 
L 410.408571 229.486987 
" clip-path="url(#p4aa0238426)" style="fill: none; stroke: #808080; stroke-opacity: 0.7"/>
    <path d="M 481.251014 267.818351 
L 517.090909 330.067652 
" clip-path="url(#p4aa0238426)" style="fill: none; stroke: #808080; stroke-opacity: 0.7"/>
    <path d="M 461.071609 162.556645 
L 410.408571 229.486987 
" clip-path="url(#p4aa0238426)" style="fill: none; stroke: #808080; stroke-opacity: 0.7"/>
    <path d="M 461.071609 162.556645 
L 429.937473 140.338316 
" clip-path="url(#p4aa0238426)" style="fill: none; stroke: #808080; stroke-opacity: 0.7"/>
    <path d="M 429.937473 140.338316 
L 410.408571 229.486987 
" clip-path="url(#p4aa0238426)" style="fill: none; stroke: #808080; stroke-opacity: 0.7"/>
    <path d="M 513.132535 396.447283 
L 517.090909 330.067652 
" clip-path="url(#p4aa0238426)" style="fill: none; stroke: #808080; stroke-opacity: 0.7"/>
    <path d="M 356.845955 517.090909 
L 339.29624 423.659988 
" clip-path="url(#p4aa0238426)" style="fill: none; stroke: #808080; stroke-opacity: 0.7"/>
    <path d="M 150.083183 378.67262 
L 128.014554 288.128183 
" clip-path="url(#p4aa0238426)" style="fill: none; stroke: #808080; stroke-opacity: 0.7"/>
    <path d="M 150.083183 378.67262 
L 232.56546 359.435725 
" clip-path="url(#p4aa0238426)" style="fill: none; stroke: #808080; stroke-opacity: 0.7"/>
    <path d="M 150.083183 378.67262 
L 98.840229 445.233606 
" clip-path="url(#p4aa0238426)" style="fill: none; stroke: #808080; stroke-opacity: 0.7"/>
    <path d="M 58.909091 431.426908 
L 98.840229 445.233606 
" clip-path="url(#p4aa0238426)" style="fill: none; stroke: #808080; stroke-opacity: 0.7"/>
    <path d="M 159.674628 203.622573 
L 239.368051 241.232317 
" clip-path="url(#p4aa0238426)" style="fill: none; stroke: #808080; stroke-opacity: 0.7"/>
    <path d="M 159.674628 203.622573 
L 128.014554 288.128183 
" clip-path="url(#p4aa0238426)" style="fill: none; stroke: #808080; stroke-opacity: 0.7"/>
    <path d="M 159.674628 203.622573 
L 122.436845 118.594738 
" clip-path="url(#p4aa0238426)" style="fill: none; stroke: #808080; stroke-opacity: 0.7"/>
    <path d="M 138.913924 58.909091 
L 122.436845 118.594738 
" clip-path="url(#p4aa0238426)" style="fill: none; stroke: #808080; stroke-opacity: 0.7"/>
   </g>
   <g id="PathCollection_1">
    <defs>
     <path id="mcb6ed5f98a" d="M 0 5.91608 
C 1.568963 5.91608 3.073876 5.292724 4.1833 4.1833 
C 5.292724 3.073876 5.91608 1.568963 5.91608 0 
C 5.91608 -1.568963 5.292724 -3.073876 4.1833 -4.1833 
C 3.073876 -5.292724 1.568963 -5.91608 0 -5.91608 
C -1.568963 -5.91608 -3.073876 -5.292724 -4.1833 -4.1833 
C -5.292724 -3.073876 -5.91608 -1.568963 -5.91608 0 
C -5.91608 1.568963 -5.292724 3.073876 -4.1833 4.1833 
C -3.073876 5.292724 -1.568963 5.91608 0 5.91608 
z
" style="stroke: #808080"/>
    </defs>
    <g clip-path="url(#p4aa0238426)">
     <use xlink:href="#mcb6ed5f98a" x="314.092745" y="308.020233" style="fill: #808080; stroke: #808080"/>
     <use xlink:href="#mcb6ed5f98a" x="481.251014" y="267.818351" style="fill: #808080; stroke: #808080"/>
     <use xlink:href="#mcb6ed5f98a" x="461.071609" y="162.556645" style="fill: #808080; stroke: #808080"/>
     <use xlink:href="#mcb6ed5f98a" x="429.937473" y="140.338316" style="fill: #808080; stroke: #808080"/>
     <use xlink:href="#mcb6ed5f98a" x="513.132535" y="396.447283" style="fill: #808080; stroke: #808080"/>
     <use xlink:href="#mcb6ed5f98a" x="356.845955" y="517.090909" style="fill: #808080; stroke: #808080"/>
     <use xlink:href="#mcb6ed5f98a" x="150.083183" y="378.67262" style="fill: #808080; stroke: #808080"/>
     <use xlink:href="#mcb6ed5f98a" x="58.909091" y="431.426908" style="fill: #808080; stroke: #808080"/>
     <use xlink:href="#mcb6ed5f98a" x="159.674628" y="203.622573" style="fill: #808080; stroke: #808080"/>
     <use xlink:href="#mcb6ed5f98a" x="138.913924" y="58.909091" style="fill: #808080; stroke: #808080"/>
     <use xlink:href="#mcb6ed5f98a" x="410.408571" y="229.486987" style="fill: #808080; stroke: #808080"/>
     <use xlink:href="#mcb6ed5f98a" x="517.090909" y="330.067652" style="fill: #808080; stroke: #808080"/>
     <use xlink:href="#mcb6ed5f98a" x="339.29624" y="423.659988" style="fill: #808080; stroke: #808080"/>
     <use xlink:href="#mcb6ed5f98a" x="98.840229" y="445.233606" style="fill: #808080; stroke: #808080"/>
     <use xlink:href="#mcb6ed5f98a" x="232.56546" y="359.435725" style="fill: #808080; stroke: #808080"/>
     <use xlink:href="#mcb6ed5f98a" x="128.014554" y="288.128183" style="fill: #808080; stroke: #808080"/>
     <use xlink:href="#mcb6ed5f98a" x="122.436845" y="118.594738" style="fill: #808080; stroke: #808080"/>
     <use xlink:href="#mcb6ed5f98a" x="239.368051" y="241.232317" style="fill: #808080; stroke: #808080"/>
    </g>
   </g>
  </g>
 </g>
 <defs>
  <clipPath id="p4aa0238426">
   <rect x="10.8" y="10.8" width="554.4" height="554.4"/>
  </clipPath>
 </defs>
</svg>
