<?xml version="1.0" encoding="utf-8" standalone="no"?>
<!DOCTYPE svg PUBLIC "-//W3C//DTD SVG 1.1//EN"
  "http://www.w3.org/Graphics/SVG/1.1/DTD/svg11.dtd">
<svg xmlns:xlink="http://www.w3.org/1999/xlink" width="576pt" height="576pt" viewBox="0 0 576 576" xmlns="http://www.w3.org/2000/svg" version="1.1">
 <metadata>
  <rdf:RDF xmlns:dc="http://purl.org/dc/elements/1.1/" xmlns:cc="http://creativecommons.org/ns#" xmlns:rdf="http://www.w3.org/1999/02/22-rdf-syntax-ns#">
   <cc:Work>
    <dc:type rdf:resource="http://purl.org/dc/dcmitype/StillImage"/>
    <dc:date>2026-09-08T11:59:33.842835</dc:date>
    <dc:format>image/svg+xml</dc:format>
    <dc:creator>
     <cc:Agent>
      <dc:title>Matplotlib v3.11.0, https://matplotlib.org/</dc:title>
     </cc:Agent>
    </dc:creator>
   </cc:Work>
  </rdf:RDF>
 </metadata>
 <defs>
  <style type="text/css">*{stroke-linejoin: round; stroke-linecap: butt}</style>
 </defs>
 <g id="figure_1">
  <g id="patch_1">
   <path d="M 0 576 
L 576 576 
L 576 0 
L 0 0 
z
" style="fill: #ffffff"/>
  </g>
  <g id="axes_1">
   <g id="LineCollection_1">
    <path d="M 517.090909 288 
L 494.403777 186.044954 
" clip-path="url(#pee43fe68c7)" style="fill: none; stroke: #808080; stroke-opacity: 0.6"/>
    <path d="M 517.090909 288 
L 494.403777 389.955046 
" clip-path="url(#pee43fe68c7)" style="fill: none; stroke: #808080; stroke-opacity: 0.6"/>
    <path d="M 494.403777 186.044954 
L 430.835846 104.283355 
" clip-path="url(#pee43fe68c7)" style="fill: none; stroke: #808080; stroke-opacity: 0.6"/>
    <path d="M 494.403777 186.044954 
L 81.596223 389.955046 
" clip-path="url(#pee43fe68c7)" style="fill: none; stroke: #808080; stroke-opacity: 0.6"/>
    <path d="M 494.403777 186.044954 
L 81.596223 186.044954 
" clip-path="url(#pee43fe68c7)" style="fill: none; stroke: #808080; stroke-opacity: 0.6"/>
    <path d="M 430.835846 104.283355 
L 338.977523 58.909091 
" clip-path="url(#pee43fe68c7)" style="fill: none; stroke: #808080; stroke-opacity: 0.6"/>
    <path d="M 430.835846 104.283355 
L 494.403777 389.955046 
" clip-path="url(#pee43fe68c7)" style="fill: none; stroke: #808080; stroke-opacity: 0.6"/>
    <path d="M 430.835846 104.283355 
L 430.835846 471.716645 
" clip-path="url(#pee43fe68c7)" style="fill: none; stroke: #808080; stroke-opacity: 0.6"/>
    <path d="M 338.977523 58.909091 
L 237.022477 58.909091 
" clip-path="url(#pee43fe68c7)" style="fill: none; stroke: #808080; stroke-opacity: 0.6"/>
    <path d="M 237.022477 58.909091 
L 145.164154 104.283355 
" clip-path="url(#pee43fe68c7)" style="fill: none; stroke: #808080; stroke-opacity: 0.6"/>
    <path d="M 145.164154 104.283355 
L 81.596223 186.044954 
" clip-path="url(#pee43fe68c7)" style="fill: none; stroke: #808080; stroke-opacity: 0.6"/>
    <path d="M 81.596223 186.044954 
L 58.909091 288 
" clip-path="url(#pee43fe68c7)" style="fill: none; stroke: #808080; stroke-opacity: 0.6"/>
    <path d="M 81.596223 186.044954 
L 145.164154 471.716645 
" clip-path="url(#pee43fe68c7)" style="fill: none; stroke: #808080; stroke-opacity: 0.6"/>
    <path d="M 81.596223 186.044954 
L 494.403777 389.955046 
" clip-path="url(#pee43fe68c7)" style="fill: none; stroke: #808080; stroke-opacity: 0.6"/>
    <path d="M 58.909091 288 
L 81.596223 389.955046 
" clip-path="url(#pee43fe68c7)" style="fill: none; stroke: #808080; stroke-opacity: 0.6"/>
    <path d="M 81.596223 389.955046 
L 145.164154 471.716645 
" clip-path="url(#pee43fe68c7)" style="fill: none; stroke: #808080; stroke-opacity: 0.6"/>
    <path d="M 145.164154 471.716645 
L 237.022477 517.090909 
" clip-path="url(#pee43fe68c7)" style="fill: none; stroke: #808080; stroke-opacity: 0.6"/>
    <path d="M 237.022477 517.090909 
L 338.977523 517.090909 
" clip-path="url(#pee43fe68c7)" style="fill: none; stroke: #808080; stroke-opacity: 0.6"/>
    <path d="M 338.977523 517.090909 
L 430.835846 471.716645 
" clip-path="url(#pee43fe68c7)" style="fill: none; stroke: #808080; stroke-opacity: 0.6"/>
    <path d="M 430.835846 471.716645 
L 494.403777 389.955046 
" clip-path="url(#pee43fe68c7)" style="fill: none; stroke: #808080; stroke-opacity: 0.6"/>
   </g>
   <g id="PathCollection_1">
    <defs>
     <path id="mf5f84bbd67" d="M 0 6.324555 
C 1.677292 6.324555 3.286112 5.65816 4.472136 4.472136 
C 5.65816 3.286112 6.324555 1.677292 6.324555 0 
C 6.324555 -1.677292 5.65816 -3.286112 4.472136 -4.472136 
C 3.286112 -5.65816 1.677292 -6.324555 0 -6.324555 
C -1.677292 -6.324555 -3.286112 -5.65816 -4.472136 -4.472136 
C -5.65816 -3.286112 -6.324555 -1.677292 -6.324555 0 
C -6.324555 1.677292 -5.65816 3.286112 -4.472136 4.472136 
C -3.286112 5.65816 -1.677292 6.324555 0 6.324555 
z
" style="stroke: #808080; stroke-width: 0.5"/>
    </defs>
    <g clip-path="url(#pee43fe68c7)">
     <use xlink:href="#mf5f84bbd67" x="517.090909" y="288" style="fill: #808080; stroke: #808080; stroke-width: 0.5"/>
     <use xlink:href="#mf5f84bbd67" x="494.403777" y="186.044954" style="fill: #808080; stroke: #808080; stroke-width: 0.5"/>
     <use xlink:href="#mf5f84bbd67" x="430.835846" y="104.283355" style="fill: #808080; stroke: #808080; stroke-width: 0.5"/>
     <use xlink:href="#mf5f84bbd67" x="338.977523" y="58.909091" style="fill: #808080; stroke: #808080; stroke-width: 0.5"/>
     <use xlink:href="#mf5f84bbd67" x="237.022477" y="58.909091" style="fill: #808080; stroke: #808080; stroke-width: 0.5"/>
     <use xlink:href="#mf5f84bbd67" x="145.164154" y="104.283355" style="fill: #808080; stroke: #808080; stroke-width: 0.5"/>
     <use xlink:href="#mf5f84bbd67" x="81.596223" y="186.044954" style="fill: #808080; stroke: #808080; stroke-width: 0.5"/>
     <use xlink:href="#mf5f84bbd67" x="58.909091" y="288" style="fill: #808080; stroke: #808080; stroke-width: 0.5"/>
     <use xlink:href="#mf5f84bbd67" x="81.596223" y="389.955046" style="fill: #808080; stroke: #808080; stroke-width: 0.5"/>
     <use xlink:href="#mf5f84bbd67" x="145.164154" y="471.716645" style="fill: #808080; stroke: #808080; stroke-width: 0.5"/>
     <use xlink:href="#mf5f84bbd67" x="237.022477" y="517.090909" style="fill: #808080; stroke: #808080; stroke-width: 0.5"/>
     <use xlink:href="#mf5f84bbd67" x="338.977523" y="517.090909" style="fill: #808080; stroke: #808080; stroke-width: 0.5"/>
     <use xlink:href="#mf5f84bbd67" x="430.835846" y="471.716645" style="fill: #808080; stroke: #808080; stroke-width: 0.5"/>
     <use xlink:href="#mf5f84bbd67" x="494.403777" y="389.955046" style="fill: #808080; stroke: #808080; stroke-width: 0.5"/>
    </g>
   </g>
  </g>
 </g>
 <defs>
  <clipPath id="pee43fe68c7">
   <rect x="10.8" y="10.8" width="554.4" height="554.4"/>
  </clipPath>
 </defs>
</svg>
