<?xml version="1.0" encoding="utf-8" standalone="no"?>
<!DOCTYPE svg PUBLIC "-//W3C//DTD SVG 1.1//EN"
  "http://www.w3.org/Graphics/SVG/1.1/DTD/svg11.dtd">
<svg xmlns:xlink="http://www.w3.org/1999/xlink" width="576pt" height="576pt" viewBox="0 0 576 576" xmlns="http://www.w3.org/2000/svg" version="1.1">
 <metadata>
  <rdf:RDF xmlns:dc="http://purl.org/dc/elements/1.1/" xmlns:cc="http://creativecommons.org/ns#" xmlns:rdf="http://www.w3.org/1999/02/22-rdf-syntax-ns#">
   <cc:Work>
    <dc:type rdf:resource="http://purl.org/dc/dcmitype/StillImage"/>
    <dc:date>2026-09-15T15:17:55.744925</dc:date>
    <dc:format>image/svg+xml</dc:format>
    <dc:creator>
     <cc:Agent>
      <dc:title>Matplotlib v3.11.0, https://matplotlib.org/</dc:title>
     </cc:Agent>
    </dc:creator>
   </cc:Work>
  </rdf:RDF>
 </metadata>
 <defs>
  <style type="text/css">*{stroke-linejoin: round; stroke-linecap: butt}</style>
 </defs>
 <g id="figure_1">
  <g id="patch_1">
   <path d="M 0 576 
L 576 576 
L 576 0 
L 0 0 
z
" style="fill: #ffffff"/>
  </g>
  <g id="axes_1">
   <g id="LineCollection_1">
    <path d="M 198.025419 137.660004 
L 335.558335 145.108309 
" clip-path="url(#p6d34d4d3a6)" style="fill: none; stroke: #808080; stroke-opacity: 0.6"/>
    <path d="M 198.025419 137.660004 
L 225.503213 204.168571 
" clip-path="url(#p6d34d4d3a6)" style="fill: none; stroke: #808080; stroke-opacity: 0.6"/>
    <path d="M 198.025419 137.660004 
L 187.829206 386.90343 
" clip-path="url(#p6d34d4d3a6)" style="fill: none; stroke: #808080; stroke-opacity: 0.6"/>
    <path d="M 335.558335 145.108309 
L 443.006426 58.909091 
" clip-path="url(#p6d34d4d3a6)" style="fill: none; stroke: #808080; stroke-opacity: 0.6"/>
    <path d="M 335.558335 145.108309 
L 293.030132 365.704409 
" clip-path="url(#p6d34d4d3a6)" style="fill: none; stroke: #808080; stroke-opacity: 0.6"/>
    <path d="M 335.558335 145.108309 
L 411.52212 237.86718 
" clip-path="url(#p6d34d4d3a6)" style="fill: none; stroke: #808080; stroke-opacity: 0.6"/>
    <path d="M 443.006426 58.909091 
L 411.52212 237.86718 
" clip-path="url(#p6d34d4d3a6)" style="fill: none; stroke: #808080; stroke-opacity: 0.6"/>
    <path d="M 411.52212 237.86718 
L 517.090909 340.810468 
" clip-path="url(#p6d34d4d3a6)" style="fill: none; stroke: #808080; stroke-opacity: 0.6"/>
    <path d="M 411.52212 237.86718 
L 449.875875 448.153751 
" clip-path="url(#p6d34d4d3a6)" style="fill: none; stroke: #808080; stroke-opacity: 0.6"/>
    <path d="M 411.52212 237.86718 
L 225.503213 204.168571 
" clip-path="url(#p6d34d4d3a6)" style="fill: none; stroke: #808080; stroke-opacity: 0.6"/>
    <path d="M 517.090909 340.810468 
L 449.875875 448.153751 
" clip-path="url(#p6d34d4d3a6)" style="fill: none; stroke: #808080; stroke-opacity: 0.6"/>
    <path d="M 449.875875 448.153751 
L 313.638477 517.090909 
" clip-path="url(#p6d34d4d3a6)" style="fill: none; stroke: #808080; stroke-opacity: 0.6"/>
    <path d="M 313.638477 517.090909 
L 293.030132 365.704409 
" clip-path="url(#p6d34d4d3a6)" style="fill: none; stroke: #808080; stroke-opacity: 0.6"/>
    <path d="M 313.638477 517.090909 
L 187.829206 386.90343 
" clip-path="url(#p6d34d4d3a6)" style="fill: none; stroke: #808080; stroke-opacity: 0.6"/>
    <path d="M 293.030132 365.704409 
L 187.829206 386.90343 
" clip-path="url(#p6d34d4d3a6)" style="fill: none; stroke: #808080; stroke-opacity: 0.6"/>
    <path d="M 187.829206 386.90343 
L 62.978779 380.717946 
" clip-path="url(#p6d34d4d3a6)" style="fill: none; stroke: #808080; stroke-opacity: 0.6"/>
    <path d="M 62.978779 380.717946 
L 58.909091 217.439883 
" clip-path="url(#p6d34d4d3a6)" style="fill: none; stroke: #808080; stroke-opacity: 0.6"/>
    <path d="M 58.909091 217.439883 
L 225.503213 204.168571 
" clip-path="url(#p6d34d4d3a6)" style="fill: none; stroke: #808080; stroke-opacity: 0.6"/>
   </g>
   <g id="LineCollection_2">
    <path d="M 517.090909 340.810468 
L 411.52212 237.86718 
" clip-path="url(#p6d34d4d3a6)" style="fill: none; stroke: #ff0000; stroke-width: 2"/>
    <path d="M 443.006426 58.909091 
L 335.558335 145.108309 
" clip-path="url(#p6d34d4d3a6)" style="fill: none; stroke: #ff0000; stroke-width: 2"/>
    <path d="M 58.909091 217.439883 
L 62.978779 380.717946 
" clip-path="url(#p6d34d4d3a6)" style="fill: none; stroke: #ff0000; stroke-width: 2"/>
    <path d="M 58.909091 217.439883 
L 225.503213 204.168571 
" clip-path="url(#p6d34d4d3a6)" style="fill: none; stroke: #ff0000; stroke-width: 2"/>
    <path d="M 449.875875 448.153751 
L 313.638477 517.090909 
" clip-path="url(#p6d34d4d3a6)" style="fill: none; stroke: #ff0000; stroke-width: 2"/>
    <path d="M 225.503213 204.168571 
L 198.025419 137.660004 
" clip-path="url(#p6d34d4d3a6)" style="fill: none; stroke: #ff0000; stroke-width: 2"/>
    <path d="M 335.558335 145.108309 
L 198.025419 137.660004 
" clip-path="url(#p6d34d4d3a6)" style="fill: none; stroke: #ff0000; stroke-width: 2"/>
    <path d="M 411.52212 237.86718 
L 443.006426 58.909091 
" clip-path="url(#p6d34d4d3a6)" style="fill: none; stroke: #ff0000; stroke-width: 2"/>
    <path d="M 187.829206 386.90343 
L 62.978779 380.717946 
" clip-path="url(#p6d34d4d3a6)" style="fill: none; stroke: #ff0000; stroke-width: 2"/>
    <path d="M 517.090909 340.810468 
L 449.875875 448.153751 
" clip-path="url(#p6d34d4d3a6)" style="fill: none; stroke: #ff0000; stroke-width: 2"/>
    <path d="M 187.829206 386.90343 
L 293.030132 365.704409 
" clip-path="url(#p6d34d4d3a6)" style="fill: none; stroke: #ff0000; stroke-width: 2"/>
    <path d="M 293.030132 365.704409 
L 313.638477 517.090909 
" clip-path="url(#p6d34d4d3a6)" style="fill: none; stroke: #ff0000; stroke-width: 2"/>
   </g>
   <g id="PathCollection_1">
    <defs>
     <path id="mff0e5ed52e" d="M 0 6.324555 
C 1.677292 6.324555 3.286112 5.65816 4.472136 4.472136 
C 5.65816 3.286112 6.324555 1.677292 6.324555 0 
C 6.324555 -1.677292 5.65816 -3.286112 4.472136 -4.472136 
C 3.286112 -5.65816 1.677292 -6.324555 0 -6.324555 
C -1.677292 -6.324555 -3.286112 -5.65816 -4.472136 -4.472136 
C -5.65816 -3.286112 -6.324555 -1.677292 -6.324555 0 
C -6.324555 1.677292 -5.65816 3.286112 -4.472136 4.472136 
C -3.286112 5.65816 -1.677292 6.324555 0 6.324555 
z
" style="stroke: #808080; stroke-width: 0.5"/>
    </defs>
    <g clip-path="url(#p6d34d4d3a6)">
     <use xlink:href="#mff0e5ed52e" x="198.025419" y="137.660004" style="fill: #808080; stroke: #808080; stroke-width: 0.5"/>
     <use xlink:href="#mff0e5ed52e" x="335.558335" y="145.108309" style="fill: #808080; stroke: #808080; stroke-width: 0.5"/>
     <use xlink:href="#mff0e5ed52e" x="443.006426" y="58.909091" style="fill: #808080; stroke: #808080; stroke-width: 0.5"/>
     <use xlink:href="#mff0e5ed52e" x="411.52212" y="237.86718" style="fill: #808080; stroke: #808080; stroke-width: 0.5"/>
     <use xlink:href="#mff0e5ed52e" x="517.090909" y="340.810468" style="fill: #808080; stroke: #808080; stroke-width: 0.5"/>
     <use xlink:href="#mff0e5ed52e" x="449.875875" y="448.153751" style="fill: #808080; stroke: #808080; stroke-width: 0.5"/>
     <use xlink:href="#mff0e5ed52e" x="313.638477" y="517.090909" style="fill: #808080; stroke: #808080; stroke-width: 0.5"/>
     <use xlink:href="#mff0e5ed52e" x="293.030132" y="365.704409" style="fill: #808080; stroke: #808080; stroke-width: 0.5"/>
     <use xlink:href="#mff0e5ed52e" x="187.829206" y="386.90343" style="fill: #808080; stroke: #808080; stroke-width: 0.5"/>
     <use xlink:href="#mff0e5ed52e" x="62.978779" y="380.717946" style="fill: #808080; stroke: #808080; stroke-width: 0.5"/>
     <use xlink:href="#mff0e5ed52e" x="58.909091" y="217.439883" style="fill: #808080; stroke: #808080; stroke-width: 0.5"/>
     <use xlink:href="#mff0e5ed52e" x="225.503213" y="204.168571" style="fill: #808080; stroke: #808080; stroke-width: 0.5"/>
    </g>
   </g>
   <g id="PathCollection_2">
    <defs>
     <path id="m10edf1d876" d="M 0 6.324555 
C 1.677292 6.324555 3.286112 5.65816 4.472136 4.472136 
C 5.65816 3.286112 6.324555 1.677292 6.324555 0 
C 6.324555 -1.677292 5.65816 -3.286112 4.472136 -4.472136 
C 3.286112 -5.65816 1.677292 -6.324555 0 -6.324555 
C -1.677292 -6.324555 -3.286112 -5.65816 -4.472136 -4.472136 
C -5.65816 -3.286112 -6.324555 -1.677292 -6.324555 0 
C -6.324555 1.677292 -5.65816 3.286112 -4.472136 4.472136 
C -3.286112 5.65816 -1.677292 6.324555 0 6.324555 
z
" style="stroke: #ff0000; stroke-width: 0.5"/>
    </defs>
    <g clip-path="url(#p6d34d4d3a6)">
     <use xlink:href="#m10edf1d876" x="198.025419" y="137.660004" style="fill: #ff0000; stroke: #ff0000; stroke-width: 0.5"/>
     <use xlink:href="#m10edf1d876" x="335.558335" y="145.108309" style="fill: #ff0000; stroke: #ff0000; stroke-width: 0.5"/>
     <use xlink:href="#m10edf1d876" x="443.006426" y="58.909091" style="fill: #ff0000; stroke: #ff0000; stroke-width: 0.5"/>
     <use xlink:href="#m10edf1d876" x="411.52212" y="237.86718" style="fill: #ff0000; stroke: #ff0000; stroke-width: 0.5"/>
     <use xlink:href="#m10edf1d876" x="517.090909" y="340.810468" style="fill: #ff0000; stroke: #ff0000; stroke-width: 0.5"/>
     <use xlink:href="#m10edf1d876" x="449.875875" y="448.153751" style="fill: #ff0000; stroke: #ff0000; stroke-width: 0.5"/>
     <use xlink:href="#m10edf1d876" x="313.638477" y="517.090909" style="fill: #ff0000; stroke: #ff0000; stroke-width: 0.5"/>
     <use xlink:href="#m10edf1d876" x="293.030132" y="365.704409" style="fill: #ff0000; stroke: #ff0000; stroke-width: 0.5"/>
     <use xlink:href="#m10edf1d876" x="187.829206" y="386.90343" style="fill: #ff0000; stroke: #ff0000; stroke-width: 0.5"/>
     <use xlink:href="#m10edf1d876" x="62.978779" y="380.717946" style="fill: #ff0000; stroke: #ff0000; stroke-width: 0.5"/>
     <use xlink:href="#m10edf1d876" x="58.909091" y="217.439883" style="fill: #ff0000; stroke: #ff0000; stroke-width: 0.5"/>
     <use xlink:href="#m10edf1d876" x="225.503213" y="204.168571" style="fill: #ff0000; stroke: #ff0000; stroke-width: 0.5"/>
    </g>
   </g>
  </g>
 </g>
 <defs>
  <clipPath id="p6d34d4d3a6">
   <rect x="10.8" y="10.8" width="554.4" height="554.4"/>
  </clipPath>
 </defs>
</svg>
