<?xml version="1.0" encoding="utf-8" standalone="no"?>
<!DOCTYPE svg PUBLIC "-//W3C//DTD SVG 1.1//EN"
  "http://www.w3.org/Graphics/SVG/1.1/DTD/svg11.dtd">
<svg xmlns:xlink="http://www.w3.org/1999/xlink" width="406.734825pt" height="509.2pt" viewBox="0 0 406.734825 509.2" xmlns="http://www.w3.org/2000/svg" version="1.1">
 <metadata>
  <rdf:RDF xmlns:dc="http://purl.org/dc/elements/1.1/" xmlns:cc="http://creativecommons.org/ns#" xmlns:rdf="http://www.w3.org/1999/02/22-rdf-syntax-ns#">
   <cc:Work>
    <dc:type rdf:resource="http://purl.org/dc/dcmitype/StillImage"/>
    <dc:date>2026-07-08T10:01:39.824746</dc:date>
    <dc:format>image/svg+xml</dc:format>
    <dc:creator>
     <cc:Agent>
      <dc:title>Matplotlib v3.11.0, https://matplotlib.org/</dc:title>
     </cc:Agent>
    </dc:creator>
   </cc:Work>
  </rdf:RDF>
 </metadata>
 <defs>
  <style type="text/css">*{stroke-linejoin: round; stroke-linecap: butt}</style>
 </defs>
 <g id="figure_1">
  <g id="patch_1">
   <path d="M 0 509.2 
L 406.734825 509.2 
L 406.734825 0 
L 0 0 
z
" style="fill: #ffffff"/>
  </g>
  <g id="axes_1">
   <g id="LineCollection_1">
    <path d="M 192.152297 163.922914 
L 256.898104 244.694546 
" clip-path="url(#p1a1e425f05)" style="fill: none; stroke: #64748b; stroke-opacity: 0.55"/>
    <path d="M 199.557977 304.254668 
L 104.69853 321.700003 
" clip-path="url(#p1a1e425f05)" style="fill: none; stroke: #64748b; stroke-opacity: 0.55"/>
    <path d="M 199.557977 304.254668 
L 368.464447 323.493917 
" clip-path="url(#p1a1e425f05)" style="fill: none; stroke: #64748b; stroke-opacity: 0.55"/>
    <path d="M 199.557977 304.254668 
L 158.7733 112.156137 
" clip-path="url(#p1a1e425f05)" style="fill: none; stroke: #64748b; stroke-opacity: 0.55"/>
    <path d="M 199.557977 304.254668 
L 117.317928 462.038017 
" clip-path="url(#p1a1e425f05)" style="fill: none; stroke: #64748b; stroke-opacity: 0.55"/>
    <path d="M 199.557977 304.254668 
L 256.898104 244.694546 
" clip-path="url(#p1a1e425f05)" style="fill: none; stroke: #64748b; stroke-opacity: 0.55"/>
    <path d="M 104.69853 321.700003 
L 38.270377 162.835535 
" clip-path="url(#p1a1e425f05)" style="fill: none; stroke: #64748b; stroke-opacity: 0.55"/>
    <path d="M 104.69853 321.700003 
L 256.898104 244.694546 
" clip-path="url(#p1a1e425f05)" style="fill: none; stroke: #64748b; stroke-opacity: 0.55"/>
    <path d="M 158.7733 112.156137 
L 256.898104 244.694546 
" clip-path="url(#p1a1e425f05)" style="fill: none; stroke: #64748b; stroke-opacity: 0.55"/>
    <path d="M 258.298438 373.37123 
L 256.898104 244.694546 
" clip-path="url(#p1a1e425f05)" style="fill: none; stroke: #64748b; stroke-opacity: 0.55"/>
    <path d="M 249.469974 449.863166 
L 256.898104 244.694546 
" clip-path="url(#p1a1e425f05)" style="fill: none; stroke: #64748b; stroke-opacity: 0.55"/>
   </g>
   <g id="LineCollection_2">
    <path d="M 192.152297 163.922914 
L 199.557977 304.254668 
" clip-path="url(#p1a1e425f05)" style="fill: none; stroke: #dc2626; stroke-width: 2"/>
    <path d="M 192.152297 163.922914 
L 38.270377 162.835535 
" clip-path="url(#p1a1e425f05)" style="fill: none; stroke: #dc2626; stroke-width: 2"/>
    <path d="M 199.557977 304.254668 
L 249.469974 449.863166 
" clip-path="url(#p1a1e425f05)" style="fill: none; stroke: #dc2626; stroke-width: 2"/>
    <path d="M 104.69853 321.700003 
L 117.317928 462.038017 
" clip-path="url(#p1a1e425f05)" style="fill: none; stroke: #dc2626; stroke-width: 2"/>
    <path d="M 104.69853 321.700003 
L 258.298438 373.37123 
" clip-path="url(#p1a1e425f05)" style="fill: none; stroke: #dc2626; stroke-width: 2"/>
    <path d="M 38.270377 162.835535 
L 158.7733 112.156137 
" clip-path="url(#p1a1e425f05)" style="fill: none; stroke: #dc2626; stroke-width: 2"/>
    <path d="M 158.7733 112.156137 
L 286.076694 47.161983 
" clip-path="url(#p1a1e425f05)" style="fill: none; stroke: #dc2626; stroke-width: 2"/>
    <path d="M 286.076694 47.161983 
L 256.898104 244.694546 
" clip-path="url(#p1a1e425f05)" style="fill: none; stroke: #dc2626; stroke-width: 2"/>
    <path d="M 368.464447 323.493917 
L 258.298438 373.37123 
" clip-path="url(#p1a1e425f05)" style="fill: none; stroke: #dc2626; stroke-width: 2"/>
    <path d="M 368.464447 323.493917 
L 256.898104 244.694546 
" clip-path="url(#p1a1e425f05)" style="fill: none; stroke: #dc2626; stroke-width: 2"/>
    <path d="M 249.469974 449.863166 
L 117.317928 462.038017 
" clip-path="url(#p1a1e425f05)" style="fill: none; stroke: #dc2626; stroke-width: 2"/>
   </g>
   <g id="PathCollection_1">
    <defs>
     <path id="m7fe4a9b507" d="M 0 6.324555 
C 1.677292 6.324555 3.286112 5.65816 4.472136 4.472136 
C 5.65816 3.286112 6.324555 1.677292 6.324555 0 
C 6.324555 -1.677292 5.65816 -3.286112 4.472136 -4.472136 
C 3.286112 -5.65816 1.677292 -6.324555 0 -6.324555 
C -1.677292 -6.324555 -3.286112 -5.65816 -4.472136 -4.472136 
C -5.65816 -3.286112 -6.324555 -1.677292 -6.324555 0 
C -6.324555 1.677292 -5.65816 3.286112 -4.472136 4.472136 
C -3.286112 5.65816 -1.677292 6.324555 0 6.324555 
z
" style="stroke: #111827; stroke-width: 0.4"/>
    </defs>
    <g clip-path="url(#p1a1e425f05)">
     <use xlink:href="#m7fe4a9b507" x="192.152297" y="163.922914" style="fill: #d9d9d9; stroke: #111827; stroke-width: 0.4"/>
     <use xlink:href="#m7fe4a9b507" x="199.557977" y="304.254668" style="fill: #d9d9d9; stroke: #111827; stroke-width: 0.4"/>
     <use xlink:href="#m7fe4a9b507" x="104.69853" y="321.700003" style="fill: #d9d9d9; stroke: #111827; stroke-width: 0.4"/>
     <use xlink:href="#m7fe4a9b507" x="38.270377" y="162.835535" style="fill: #d9d9d9; stroke: #111827; stroke-width: 0.4"/>
     <use xlink:href="#m7fe4a9b507" x="158.7733" y="112.156137" style="fill: #d9d9d9; stroke: #111827; stroke-width: 0.4"/>
     <use xlink:href="#m7fe4a9b507" x="286.076694" y="47.161983" style="fill: #d9d9d9; stroke: #111827; stroke-width: 0.4"/>
     <use xlink:href="#m7fe4a9b507" x="368.464447" y="323.493917" style="fill: #d9d9d9; stroke: #111827; stroke-width: 0.4"/>
     <use xlink:href="#m7fe4a9b507" x="258.298438" y="373.37123" style="fill: #d9d9d9; stroke: #111827; stroke-width: 0.4"/>
     <use xlink:href="#m7fe4a9b507" x="249.469974" y="449.863166" style="fill: #d9d9d9; stroke: #111827; stroke-width: 0.4"/>
     <use xlink:href="#m7fe4a9b507" x="117.317928" y="462.038017" style="fill: #d9d9d9; stroke: #111827; stroke-width: 0.4"/>
     <use xlink:href="#m7fe4a9b507" x="256.898104" y="244.694546" style="fill: #d9d9d9; stroke: #111827; stroke-width: 0.4"/>
    </g>
   </g>
  </g>
 </g>
 <defs>
  <clipPath id="p1a1e425f05">
   <rect x="3.6" y="3.6" width="399.534825" height="502"/>
  </clipPath>
 </defs>
</svg>
