<?xml version="1.0" encoding="utf-8" standalone="no"?>
<!DOCTYPE svg PUBLIC "-//W3C//DTD SVG 1.1//EN"
  "http://www.w3.org/Graphics/SVG/1.1/DTD/svg11.dtd">
<svg xmlns:xlink="http://www.w3.org/1999/xlink" width="509.2pt" height="422.768046pt" viewBox="0 0 509.2 422.768046" xmlns="http://www.w3.org/2000/svg" version="1.1">
 <metadata>
  <rdf:RDF xmlns:dc="http://purl.org/dc/elements/1.1/" xmlns:cc="http://creativecommons.org/ns#" xmlns:rdf="http://www.w3.org/1999/02/22-rdf-syntax-ns#">
   <cc:Work>
    <dc:type rdf:resource="http://purl.org/dc/dcmitype/StillImage"/>
    <dc:date>2026-07-08T10:01:39.752750</dc:date>
    <dc:format>image/svg+xml</dc:format>
    <dc:creator>
     <cc:Agent>
      <dc:title>Matplotlib v3.11.0, https://matplotlib.org/</dc:title>
     </cc:Agent>
    </dc:creator>
   </cc:Work>
  </rdf:RDF>
 </metadata>
 <defs>
  <style type="text/css">*{stroke-linejoin: round; stroke-linecap: butt}</style>
 </defs>
 <g id="figure_1">
  <g id="patch_1">
   <path d="M 0 422.768046 
L 509.2 422.768046 
L 509.2 0 
L 0 0 
z
" style="fill: #ffffff"/>
  </g>
  <g id="axes_1">
   <g id="LineCollection_1">
    <path d="M 340.327433 39.66169 
L 451.477805 47.266904 
" clip-path="url(#p99f0d2431c)" style="fill: none; stroke: #64748b; stroke-opacity: 0.55"/>
    <path d="M 265.349376 241.287459 
L 342.718466 224.303089 
" clip-path="url(#p99f0d2431c)" style="fill: none; stroke: #64748b; stroke-opacity: 0.55"/>
    <path d="M 265.349376 241.287459 
L 233.995809 139.224065 
" clip-path="url(#p99f0d2431c)" style="fill: none; stroke: #64748b; stroke-opacity: 0.55"/>
    <path d="M 265.349376 241.287459 
L 182.827922 223.899015 
" clip-path="url(#p99f0d2431c)" style="fill: none; stroke: #64748b; stroke-opacity: 0.55"/>
    <path d="M 265.349376 241.287459 
L 380.43481 124.90798 
" clip-path="url(#p99f0d2431c)" style="fill: none; stroke: #64748b; stroke-opacity: 0.55"/>
    <path d="M 93.883607 371.134163 
L 164.435809 273.417028 
" clip-path="url(#p99f0d2431c)" style="fill: none; stroke: #64748b; stroke-opacity: 0.55"/>
    <path d="M 462.038017 152.389274 
L 380.43481 124.90798 
" clip-path="url(#p99f0d2431c)" style="fill: none; stroke: #64748b; stroke-opacity: 0.55"/>
   </g>
   <g id="LineCollection_2">
    <path d="M 340.327433 39.66169 
L 233.995809 139.224065 
" clip-path="url(#p99f0d2431c)" style="fill: none; stroke: #dc2626; stroke-width: 2"/>
    <path d="M 340.327433 39.66169 
L 380.43481 124.90798 
" clip-path="url(#p99f0d2431c)" style="fill: none; stroke: #dc2626; stroke-width: 2"/>
    <path d="M 265.349376 241.287459 
L 164.435809 273.417028 
" clip-path="url(#p99f0d2431c)" style="fill: none; stroke: #dc2626; stroke-width: 2"/>
    <path d="M 265.349376 241.287459 
L 203.076767 383.106356 
" clip-path="url(#p99f0d2431c)" style="fill: none; stroke: #dc2626; stroke-width: 2"/>
    <path d="M 342.718466 224.303089 
L 182.827922 223.899015 
" clip-path="url(#p99f0d2431c)" style="fill: none; stroke: #dc2626; stroke-width: 2"/>
    <path d="M 342.718466 224.303089 
L 462.038017 152.389274 
" clip-path="url(#p99f0d2431c)" style="fill: none; stroke: #dc2626; stroke-width: 2"/>
    <path d="M 451.477805 47.266904 
L 462.038017 152.389274 
" clip-path="url(#p99f0d2431c)" style="fill: none; stroke: #dc2626; stroke-width: 2"/>
    <path d="M 451.477805 47.266904 
L 380.43481 124.90798 
" clip-path="url(#p99f0d2431c)" style="fill: none; stroke: #dc2626; stroke-width: 2"/>
    <path d="M 203.076767 383.106356 
L 93.883607 371.134163 
" clip-path="url(#p99f0d2431c)" style="fill: none; stroke: #dc2626; stroke-width: 2"/>
    <path d="M 93.883607 371.134163 
L 47.161983 283.549882 
" clip-path="url(#p99f0d2431c)" style="fill: none; stroke: #dc2626; stroke-width: 2"/>
    <path d="M 164.435809 273.417028 
L 233.995809 139.224065 
" clip-path="url(#p99f0d2431c)" style="fill: none; stroke: #dc2626; stroke-width: 2"/>
    <path d="M 47.161983 283.549882 
L 182.827922 223.899015 
" clip-path="url(#p99f0d2431c)" style="fill: none; stroke: #dc2626; stroke-width: 2"/>
   </g>
   <g id="PathCollection_1">
    <defs>
     <path id="mfd99608a1f" d="M 0 6.324555 
C 1.677292 6.324555 3.286112 5.65816 4.472136 4.472136 
C 5.65816 3.286112 6.324555 1.677292 6.324555 0 
C 6.324555 -1.677292 5.65816 -3.286112 4.472136 -4.472136 
C 3.286112 -5.65816 1.677292 -6.324555 0 -6.324555 
C -1.677292 -6.324555 -3.286112 -5.65816 -4.472136 -4.472136 
C -5.65816 -3.286112 -6.324555 -1.677292 -6.324555 0 
C -6.324555 1.677292 -5.65816 3.286112 -4.472136 4.472136 
C -3.286112 5.65816 -1.677292 6.324555 0 6.324555 
z
" style="stroke: #111827; stroke-width: 0.4"/>
    </defs>
    <g clip-path="url(#p99f0d2431c)">
     <use xlink:href="#mfd99608a1f" x="340.327433" y="39.66169" style="fill: #d9d9d9; stroke: #111827; stroke-width: 0.4"/>
     <use xlink:href="#mfd99608a1f" x="265.349376" y="241.287459" style="fill: #d9d9d9; stroke: #111827; stroke-width: 0.4"/>
     <use xlink:href="#mfd99608a1f" x="342.718466" y="224.303089" style="fill: #d9d9d9; stroke: #111827; stroke-width: 0.4"/>
     <use xlink:href="#mfd99608a1f" x="451.477805" y="47.266904" style="fill: #d9d9d9; stroke: #111827; stroke-width: 0.4"/>
     <use xlink:href="#mfd99608a1f" x="203.076767" y="383.106356" style="fill: #d9d9d9; stroke: #111827; stroke-width: 0.4"/>
     <use xlink:href="#mfd99608a1f" x="93.883607" y="371.134163" style="fill: #d9d9d9; stroke: #111827; stroke-width: 0.4"/>
     <use xlink:href="#mfd99608a1f" x="164.435809" y="273.417028" style="fill: #d9d9d9; stroke: #111827; stroke-width: 0.4"/>
     <use xlink:href="#mfd99608a1f" x="233.995809" y="139.224065" style="fill: #d9d9d9; stroke: #111827; stroke-width: 0.4"/>
     <use xlink:href="#mfd99608a1f" x="47.161983" y="283.549882" style="fill: #d9d9d9; stroke: #111827; stroke-width: 0.4"/>
     <use xlink:href="#mfd99608a1f" x="182.827922" y="223.899015" style="fill: #d9d9d9; stroke: #111827; stroke-width: 0.4"/>
     <use xlink:href="#mfd99608a1f" x="462.038017" y="152.389274" style="fill: #d9d9d9; stroke: #111827; stroke-width: 0.4"/>
     <use xlink:href="#mfd99608a1f" x="380.43481" y="124.90798" style="fill: #d9d9d9; stroke: #111827; stroke-width: 0.4"/>
    </g>
   </g>
  </g>
 </g>
 <defs>
  <clipPath id="p99f0d2431c">
   <rect x="3.6" y="3.6" width="502" height="415.568046"/>
  </clipPath>
 </defs>
</svg>
