<?xml version="1.0" encoding="utf-8" standalone="no"?>
<!DOCTYPE svg PUBLIC "-//W3C//DTD SVG 1.1//EN"
  "http://www.w3.org/Graphics/SVG/1.1/DTD/svg11.dtd">
<svg xmlns:xlink="http://www.w3.org/1999/xlink" width="509.2pt" height="464.088969pt" viewBox="0 0 509.2 464.088969" xmlns="http://www.w3.org/2000/svg" version="1.1">
 <metadata>
  <rdf:RDF xmlns:dc="http://purl.org/dc/elements/1.1/" xmlns:cc="http://creativecommons.org/ns#" xmlns:rdf="http://www.w3.org/1999/02/22-rdf-syntax-ns#">
   <cc:Work>
    <dc:type rdf:resource="http://purl.org/dc/dcmitype/StillImage"/>
    <dc:date>2026-07-08T10:01:39.804631</dc:date>
    <dc:format>image/svg+xml</dc:format>
    <dc:creator>
     <cc:Agent>
      <dc:title>Matplotlib v3.11.0, https://matplotlib.org/</dc:title>
     </cc:Agent>
    </dc:creator>
   </cc:Work>
  </rdf:RDF>
 </metadata>
 <defs>
  <style type="text/css">*{stroke-linejoin: round; stroke-linecap: butt}</style>
 </defs>
 <g id="figure_1">
  <g id="patch_1">
   <path d="M 0 464.088969 
L 509.2 464.088969 
L 509.2 0 
L 0 0 
z
" style="fill: #ffffff"/>
  </g>
  <g id="axes_1">
   <g id="LineCollection_1">
    <path d="M 130.735538 328.956349 
L 260.946802 379.496038 
" clip-path="url(#p581e73644c)" style="fill: none; stroke: #64748b; stroke-opacity: 0.55"/>
    <path d="M 408.871545 230.811812 
L 275.02176 266.627929 
" clip-path="url(#p581e73644c)" style="fill: none; stroke: #64748b; stroke-opacity: 0.55"/>
    <path d="M 112.516265 192.121925 
L 176.544784 107.296643 
" clip-path="url(#p581e73644c)" style="fill: none; stroke: #64748b; stroke-opacity: 0.55"/>
    <path d="M 275.02176 266.627929 
L 147.872785 235.947558 
" clip-path="url(#p581e73644c)" style="fill: none; stroke: #64748b; stroke-opacity: 0.55"/>
   </g>
   <g id="LineCollection_2">
    <path d="M 130.735538 328.956349 
L 47.161983 308.05765 
" clip-path="url(#p581e73644c)" style="fill: none; stroke: #dc2626; stroke-width: 2"/>
    <path d="M 130.735538 328.956349 
L 112.516265 192.121925 
" clip-path="url(#p581e73644c)" style="fill: none; stroke: #dc2626; stroke-width: 2"/>
    <path d="M 462.038017 342.740582 
L 408.871545 230.811812 
" clip-path="url(#p581e73644c)" style="fill: none; stroke: #dc2626; stroke-width: 2"/>
    <path d="M 462.038017 342.740582 
L 384.388731 420.841579 
" clip-path="url(#p581e73644c)" style="fill: none; stroke: #dc2626; stroke-width: 2"/>
    <path d="M 209.261156 194.970814 
L 112.516265 192.121925 
" clip-path="url(#p581e73644c)" style="fill: none; stroke: #dc2626; stroke-width: 2"/>
    <path d="M 209.261156 194.970814 
L 275.02176 266.627929 
" clip-path="url(#p581e73644c)" style="fill: none; stroke: #dc2626; stroke-width: 2"/>
    <path d="M 408.871545 230.811812 
L 402.732148 100.509154 
" clip-path="url(#p581e73644c)" style="fill: none; stroke: #dc2626; stroke-width: 2"/>
    <path d="M 260.946802 379.496038 
L 275.02176 266.627929 
" clip-path="url(#p581e73644c)" style="fill: none; stroke: #dc2626; stroke-width: 2"/>
    <path d="M 260.946802 379.496038 
L 384.388731 420.841579 
" clip-path="url(#p581e73644c)" style="fill: none; stroke: #dc2626; stroke-width: 2"/>
    <path d="M 47.161983 308.05765 
L 147.872785 235.947558 
" clip-path="url(#p581e73644c)" style="fill: none; stroke: #dc2626; stroke-width: 2"/>
    <path d="M 402.732148 100.509154 
L 296.17113 43.24739 
" clip-path="url(#p581e73644c)" style="fill: none; stroke: #dc2626; stroke-width: 2"/>
    <path d="M 176.544784 107.296643 
L 296.17113 43.24739 
" clip-path="url(#p581e73644c)" style="fill: none; stroke: #dc2626; stroke-width: 2"/>
    <path d="M 176.544784 107.296643 
L 147.872785 235.947558 
" clip-path="url(#p581e73644c)" style="fill: none; stroke: #dc2626; stroke-width: 2"/>
   </g>
   <g id="PathCollection_1">
    <defs>
     <path id="m9352dc0248" d="M 0 6.324555 
C 1.677292 6.324555 3.286112 5.65816 4.472136 4.472136 
C 5.65816 3.286112 6.324555 1.677292 6.324555 0 
C 6.324555 -1.677292 5.65816 -3.286112 4.472136 -4.472136 
C 3.286112 -5.65816 1.677292 -6.324555 0 -6.324555 
C -1.677292 -6.324555 -3.286112 -5.65816 -4.472136 -4.472136 
C -5.65816 -3.286112 -6.324555 -1.677292 -6.324555 0 
C -6.324555 1.677292 -5.65816 3.286112 -4.472136 4.472136 
C -3.286112 5.65816 -1.677292 6.324555 0 6.324555 
z
" style="stroke: #111827; stroke-width: 0.4"/>
    </defs>
    <g clip-path="url(#p581e73644c)">
     <use xlink:href="#m9352dc0248" x="130.735538" y="328.956349" style="fill: #d9d9d9; stroke: #111827; stroke-width: 0.4"/>
     <use xlink:href="#m9352dc0248" x="462.038017" y="342.740582" style="fill: #d9d9d9; stroke: #111827; stroke-width: 0.4"/>
     <use xlink:href="#m9352dc0248" x="209.261156" y="194.970814" style="fill: #d9d9d9; stroke: #111827; stroke-width: 0.4"/>
     <use xlink:href="#m9352dc0248" x="408.871545" y="230.811812" style="fill: #d9d9d9; stroke: #111827; stroke-width: 0.4"/>
     <use xlink:href="#m9352dc0248" x="260.946802" y="379.496038" style="fill: #d9d9d9; stroke: #111827; stroke-width: 0.4"/>
     <use xlink:href="#m9352dc0248" x="112.516265" y="192.121925" style="fill: #d9d9d9; stroke: #111827; stroke-width: 0.4"/>
     <use xlink:href="#m9352dc0248" x="47.161983" y="308.05765" style="fill: #d9d9d9; stroke: #111827; stroke-width: 0.4"/>
     <use xlink:href="#m9352dc0248" x="402.732148" y="100.509154" style="fill: #d9d9d9; stroke: #111827; stroke-width: 0.4"/>
     <use xlink:href="#m9352dc0248" x="176.544784" y="107.296643" style="fill: #d9d9d9; stroke: #111827; stroke-width: 0.4"/>
     <use xlink:href="#m9352dc0248" x="296.17113" y="43.24739" style="fill: #d9d9d9; stroke: #111827; stroke-width: 0.4"/>
     <use xlink:href="#m9352dc0248" x="275.02176" y="266.627929" style="fill: #d9d9d9; stroke: #111827; stroke-width: 0.4"/>
     <use xlink:href="#m9352dc0248" x="384.388731" y="420.841579" style="fill: #d9d9d9; stroke: #111827; stroke-width: 0.4"/>
     <use xlink:href="#m9352dc0248" x="147.872785" y="235.947558" style="fill: #d9d9d9; stroke: #111827; stroke-width: 0.4"/>
    </g>
   </g>
  </g>
 </g>
 <defs>
  <clipPath id="p581e73644c">
   <rect x="3.6" y="3.6" width="502" height="456.888969"/>
  </clipPath>
 </defs>
</svg>
