<?xml version="1.0" encoding="utf-8" standalone="no"?>
<!DOCTYPE svg PUBLIC "-//W3C//DTD SVG 1.1//EN"
  "http://www.w3.org/Graphics/SVG/1.1/DTD/svg11.dtd">
<svg xmlns:xlink="http://www.w3.org/1999/xlink" width="239.977492pt" height="509.2pt" viewBox="0 0 239.977492 509.2" xmlns="http://www.w3.org/2000/svg" version="1.1">
 <metadata>
  <rdf:RDF xmlns:dc="http://purl.org/dc/elements/1.1/" xmlns:cc="http://creativecommons.org/ns#" xmlns:rdf="http://www.w3.org/1999/02/22-rdf-syntax-ns#">
   <cc:Work>
    <dc:type rdf:resource="http://purl.org/dc/dcmitype/StillImage"/>
    <dc:date>2026-07-08T10:01:39.770186</dc:date>
    <dc:format>image/svg+xml</dc:format>
    <dc:creator>
     <cc:Agent>
      <dc:title>Matplotlib v3.11.0, https://matplotlib.org/</dc:title>
     </cc:Agent>
    </dc:creator>
   </cc:Work>
  </rdf:RDF>
 </metadata>
 <defs>
  <style type="text/css">*{stroke-linejoin: round; stroke-linecap: butt}</style>
 </defs>
 <g id="figure_1">
  <g id="patch_1">
   <path d="M 0 509.2 
L 239.977492 509.2 
L 239.977492 0 
L 0 0 
z
" style="fill: #ffffff"/>
  </g>
  <g id="axes_1">
   <g id="LineCollection_1">
    <path d="M 98.594796 273.899457 
L 144.958404 284.064709 
" clip-path="url(#peb5363c19f)" style="fill: none; stroke: #64748b; stroke-opacity: 0.55"/>
    <path d="M 98.594796 273.899457 
L 124.569823 324.031872 
" clip-path="url(#peb5363c19f)" style="fill: none; stroke: #64748b; stroke-opacity: 0.55"/>
    <path d="M 98.594796 273.899457 
L 96.161165 181.04665 
" clip-path="url(#peb5363c19f)" style="fill: none; stroke: #64748b; stroke-opacity: 0.55"/>
    <path d="M 167.473446 245.239296 
L 133.35092 221.097722 
" clip-path="url(#peb5363c19f)" style="fill: none; stroke: #64748b; stroke-opacity: 0.55"/>
    <path d="M 167.473446 245.239296 
L 124.569823 324.031872 
" clip-path="url(#peb5363c19f)" style="fill: none; stroke: #64748b; stroke-opacity: 0.55"/>
    <path d="M 23.7997 416.347191 
L 71.542432 399.606557 
" clip-path="url(#peb5363c19f)" style="fill: none; stroke: #64748b; stroke-opacity: 0.55"/>
    <path d="M 50.485012 352.334511 
L 71.542432 399.606557 
" clip-path="url(#peb5363c19f)" style="fill: none; stroke: #64748b; stroke-opacity: 0.55"/>
   </g>
   <g id="LineCollection_2">
    <path d="M 161.416965 47.161983 
L 216.177793 83.015681 
" clip-path="url(#peb5363c19f)" style="fill: none; stroke: #dc2626; stroke-width: 2"/>
    <path d="M 161.416965 47.161983 
L 109.851882 95.214167 
" clip-path="url(#peb5363c19f)" style="fill: none; stroke: #dc2626; stroke-width: 2"/>
    <path d="M 98.594796 273.899457 
L 167.473446 245.239296 
" clip-path="url(#peb5363c19f)" style="fill: none; stroke: #dc2626; stroke-width: 2"/>
    <path d="M 98.594796 273.899457 
L 50.485012 352.334511 
" clip-path="url(#peb5363c19f)" style="fill: none; stroke: #dc2626; stroke-width: 2"/>
    <path d="M 216.177793 83.015681 
L 214.950676 161.654137 
" clip-path="url(#peb5363c19f)" style="fill: none; stroke: #dc2626; stroke-width: 2"/>
    <path d="M 214.950676 161.654137 
L 167.473446 245.239296 
" clip-path="url(#peb5363c19f)" style="fill: none; stroke: #dc2626; stroke-width: 2"/>
    <path d="M 23.7997 416.347191 
L 37.924589 462.038017 
" clip-path="url(#peb5363c19f)" style="fill: none; stroke: #dc2626; stroke-width: 2"/>
    <path d="M 23.7997 416.347191 
L 50.485012 352.334511 
" clip-path="url(#peb5363c19f)" style="fill: none; stroke: #dc2626; stroke-width: 2"/>
    <path d="M 133.35092 221.097722 
L 144.958404 284.064709 
" clip-path="url(#peb5363c19f)" style="fill: none; stroke: #dc2626; stroke-width: 2"/>
    <path d="M 133.35092 221.097722 
L 96.161165 181.04665 
" clip-path="url(#peb5363c19f)" style="fill: none; stroke: #dc2626; stroke-width: 2"/>
    <path d="M 144.958404 284.064709 
L 124.569823 324.031872 
" clip-path="url(#peb5363c19f)" style="fill: none; stroke: #dc2626; stroke-width: 2"/>
    <path d="M 96.161165 181.04665 
L 109.851882 95.214167 
" clip-path="url(#peb5363c19f)" style="fill: none; stroke: #dc2626; stroke-width: 2"/>
    <path d="M 37.924589 462.038017 
L 71.542432 399.606557 
" clip-path="url(#peb5363c19f)" style="fill: none; stroke: #dc2626; stroke-width: 2"/>
    <path d="M 124.569823 324.031872 
L 71.542432 399.606557 
" clip-path="url(#peb5363c19f)" style="fill: none; stroke: #dc2626; stroke-width: 2"/>
   </g>
   <g id="PathCollection_1">
    <defs>
     <path id="me57c5ed120" d="M 0 6.324555 
C 1.677292 6.324555 3.286112 5.65816 4.472136 4.472136 
C 5.65816 3.286112 6.324555 1.677292 6.324555 0 
C 6.324555 -1.677292 5.65816 -3.286112 4.472136 -4.472136 
C 3.286112 -5.65816 1.677292 -6.324555 0 -6.324555 
C -1.677292 -6.324555 -3.286112 -5.65816 -4.472136 -4.472136 
C -5.65816 -3.286112 -6.324555 -1.677292 -6.324555 0 
C -6.324555 1.677292 -5.65816 3.286112 -4.472136 4.472136 
C -3.286112 5.65816 -1.677292 6.324555 0 6.324555 
z
" style="stroke: #111827; stroke-width: 0.4"/>
    </defs>
    <g clip-path="url(#peb5363c19f)">
     <use xlink:href="#me57c5ed120" x="161.416965" y="47.161983" style="fill: #d9d9d9; stroke: #111827; stroke-width: 0.4"/>
     <use xlink:href="#me57c5ed120" x="98.594796" y="273.899457" style="fill: #d9d9d9; stroke: #111827; stroke-width: 0.4"/>
     <use xlink:href="#me57c5ed120" x="216.177793" y="83.015681" style="fill: #d9d9d9; stroke: #111827; stroke-width: 0.4"/>
     <use xlink:href="#me57c5ed120" x="214.950676" y="161.654137" style="fill: #d9d9d9; stroke: #111827; stroke-width: 0.4"/>
     <use xlink:href="#me57c5ed120" x="167.473446" y="245.239296" style="fill: #d9d9d9; stroke: #111827; stroke-width: 0.4"/>
     <use xlink:href="#me57c5ed120" x="23.7997" y="416.347191" style="fill: #d9d9d9; stroke: #111827; stroke-width: 0.4"/>
     <use xlink:href="#me57c5ed120" x="133.35092" y="221.097722" style="fill: #d9d9d9; stroke: #111827; stroke-width: 0.4"/>
     <use xlink:href="#me57c5ed120" x="144.958404" y="284.064709" style="fill: #d9d9d9; stroke: #111827; stroke-width: 0.4"/>
     <use xlink:href="#me57c5ed120" x="96.161165" y="181.04665" style="fill: #d9d9d9; stroke: #111827; stroke-width: 0.4"/>
     <use xlink:href="#me57c5ed120" x="37.924589" y="462.038017" style="fill: #d9d9d9; stroke: #111827; stroke-width: 0.4"/>
     <use xlink:href="#me57c5ed120" x="124.569823" y="324.031872" style="fill: #d9d9d9; stroke: #111827; stroke-width: 0.4"/>
     <use xlink:href="#me57c5ed120" x="109.851882" y="95.214167" style="fill: #d9d9d9; stroke: #111827; stroke-width: 0.4"/>
     <use xlink:href="#me57c5ed120" x="50.485012" y="352.334511" style="fill: #d9d9d9; stroke: #111827; stroke-width: 0.4"/>
     <use xlink:href="#me57c5ed120" x="71.542432" y="399.606557" style="fill: #d9d9d9; stroke: #111827; stroke-width: 0.4"/>
    </g>
   </g>
  </g>
 </g>
 <defs>
  <clipPath id="peb5363c19f">
   <rect x="3.6" y="3.6" width="232.777492" height="502"/>
  </clipPath>
 </defs>
</svg>
