<?xml version="1.0" encoding="utf-8" standalone="no"?>
<!DOCTYPE svg PUBLIC "-//W3C//DTD SVG 1.1//EN"
  "http://www.w3.org/Graphics/SVG/1.1/DTD/svg11.dtd">
<svg xmlns:xlink="http://www.w3.org/1999/xlink" width="509.2pt" height="342.739339pt" viewBox="0 0 509.2 342.739339" xmlns="http://www.w3.org/2000/svg" version="1.1">
 <metadata>
  <rdf:RDF xmlns:dc="http://purl.org/dc/elements/1.1/" xmlns:cc="http://creativecommons.org/ns#" xmlns:rdf="http://www.w3.org/1999/02/22-rdf-syntax-ns#">
   <cc:Work>
    <dc:type rdf:resource="http://purl.org/dc/dcmitype/StillImage"/>
    <dc:date>2026-07-08T10:01:39.736358</dc:date>
    <dc:format>image/svg+xml</dc:format>
    <dc:creator>
     <cc:Agent>
      <dc:title>Matplotlib v3.11.0, https://matplotlib.org/</dc:title>
     </cc:Agent>
    </dc:creator>
   </cc:Work>
  </rdf:RDF>
 </metadata>
 <defs>
  <style type="text/css">*{stroke-linejoin: round; stroke-linecap: butt}</style>
 </defs>
 <g id="figure_1">
  <g id="patch_1">
   <path d="M 0 342.739339 
L 509.2 342.739339 
L 509.2 0 
L 0 0 
z
" style="fill: #ffffff"/>
  </g>
  <g id="axes_1">
   <g id="LineCollection_1">
    <path d="M 190.761665 310.022289 
L 193.743321 195.63902 
" clip-path="url(#p36dbbf76e5)" style="fill: none; stroke: #64748b; stroke-opacity: 0.55"/>
    <path d="M 193.743321 195.63902 
L 302.646933 298.601712 
" clip-path="url(#p36dbbf76e5)" style="fill: none; stroke: #64748b; stroke-opacity: 0.55"/>
    <path d="M 193.743321 195.63902 
L 334.792355 124.946704 
" clip-path="url(#p36dbbf76e5)" style="fill: none; stroke: #64748b; stroke-opacity: 0.55"/>
    <path d="M 193.743321 195.63902 
L 47.161983 194.037723 
" clip-path="url(#p36dbbf76e5)" style="fill: none; stroke: #64748b; stroke-opacity: 0.55"/>
    <path d="M 155.278311 112.953172 
L 75.802603 117.21933 
" clip-path="url(#p36dbbf76e5)" style="fill: none; stroke: #64748b; stroke-opacity: 0.55"/>
    <path d="M 155.278311 112.953172 
L 99.795818 247.498834 
" clip-path="url(#p36dbbf76e5)" style="fill: none; stroke: #64748b; stroke-opacity: 0.55"/>
   </g>
   <g id="LineCollection_2">
    <path d="M 190.761665 310.022289 
L 302.646933 298.601712 
" clip-path="url(#p36dbbf76e5)" style="fill: none; stroke: #dc2626; stroke-width: 2"/>
    <path d="M 190.761665 310.022289 
L 99.795818 247.498834 
" clip-path="url(#p36dbbf76e5)" style="fill: none; stroke: #dc2626; stroke-width: 2"/>
    <path d="M 193.743321 195.63902 
L 155.278311 112.953172 
" clip-path="url(#p36dbbf76e5)" style="fill: none; stroke: #dc2626; stroke-width: 2"/>
    <path d="M 193.743321 195.63902 
L 75.802603 117.21933 
" clip-path="url(#p36dbbf76e5)" style="fill: none; stroke: #dc2626; stroke-width: 2"/>
    <path d="M 155.278311 112.953172 
L 259.885495 32.71705 
" clip-path="url(#p36dbbf76e5)" style="fill: none; stroke: #dc2626; stroke-width: 2"/>
    <path d="M 259.885495 32.71705 
L 334.792355 124.946704 
" clip-path="url(#p36dbbf76e5)" style="fill: none; stroke: #dc2626; stroke-width: 2"/>
    <path d="M 334.792355 124.946704 
L 462.038017 185.193737 
" clip-path="url(#p36dbbf76e5)" style="fill: none; stroke: #dc2626; stroke-width: 2"/>
    <path d="M 462.038017 185.193737 
L 441.899997 296.061407 
" clip-path="url(#p36dbbf76e5)" style="fill: none; stroke: #dc2626; stroke-width: 2"/>
    <path d="M 441.899997 296.061407 
L 302.646933 298.601712 
" clip-path="url(#p36dbbf76e5)" style="fill: none; stroke: #dc2626; stroke-width: 2"/>
    <path d="M 47.161983 194.037723 
L 75.802603 117.21933 
" clip-path="url(#p36dbbf76e5)" style="fill: none; stroke: #dc2626; stroke-width: 2"/>
    <path d="M 47.161983 194.037723 
L 99.795818 247.498834 
" clip-path="url(#p36dbbf76e5)" style="fill: none; stroke: #dc2626; stroke-width: 2"/>
   </g>
   <g id="PathCollection_1">
    <defs>
     <path id="mf142f688ec" d="M 0 6.324555 
C 1.677292 6.324555 3.286112 5.65816 4.472136 4.472136 
C 5.65816 3.286112 6.324555 1.677292 6.324555 0 
C 6.324555 -1.677292 5.65816 -3.286112 4.472136 -4.472136 
C 3.286112 -5.65816 1.677292 -6.324555 0 -6.324555 
C -1.677292 -6.324555 -3.286112 -5.65816 -4.472136 -4.472136 
C -5.65816 -3.286112 -6.324555 -1.677292 -6.324555 0 
C -6.324555 1.677292 -5.65816 3.286112 -4.472136 4.472136 
C -3.286112 5.65816 -1.677292 6.324555 0 6.324555 
z
" style="stroke: #111827; stroke-width: 0.4"/>
    </defs>
    <g clip-path="url(#p36dbbf76e5)">
     <use xlink:href="#mf142f688ec" x="190.761665" y="310.022289" style="fill: #d9d9d9; stroke: #111827; stroke-width: 0.4"/>
     <use xlink:href="#mf142f688ec" x="193.743321" y="195.63902" style="fill: #d9d9d9; stroke: #111827; stroke-width: 0.4"/>
     <use xlink:href="#mf142f688ec" x="155.278311" y="112.953172" style="fill: #d9d9d9; stroke: #111827; stroke-width: 0.4"/>
     <use xlink:href="#mf142f688ec" x="259.885495" y="32.71705" style="fill: #d9d9d9; stroke: #111827; stroke-width: 0.4"/>
     <use xlink:href="#mf142f688ec" x="334.792355" y="124.946704" style="fill: #d9d9d9; stroke: #111827; stroke-width: 0.4"/>
     <use xlink:href="#mf142f688ec" x="462.038017" y="185.193737" style="fill: #d9d9d9; stroke: #111827; stroke-width: 0.4"/>
     <use xlink:href="#mf142f688ec" x="441.899997" y="296.061407" style="fill: #d9d9d9; stroke: #111827; stroke-width: 0.4"/>
     <use xlink:href="#mf142f688ec" x="302.646933" y="298.601712" style="fill: #d9d9d9; stroke: #111827; stroke-width: 0.4"/>
     <use xlink:href="#mf142f688ec" x="47.161983" y="194.037723" style="fill: #d9d9d9; stroke: #111827; stroke-width: 0.4"/>
     <use xlink:href="#mf142f688ec" x="75.802603" y="117.21933" style="fill: #d9d9d9; stroke: #111827; stroke-width: 0.4"/>
     <use xlink:href="#mf142f688ec" x="99.795818" y="247.498834" style="fill: #d9d9d9; stroke: #111827; stroke-width: 0.4"/>
    </g>
   </g>
  </g>
 </g>
 <defs>
  <clipPath id="p36dbbf76e5">
   <rect x="3.6" y="3.6" width="502" height="335.539339"/>
  </clipPath>
 </defs>
</svg>
