<?xml version="1.0" encoding="utf-8" standalone="no"?>
<!DOCTYPE svg PUBLIC "-//W3C//DTD SVG 1.1//EN"
  "http://www.w3.org/Graphics/SVG/1.1/DTD/svg11.dtd">
<svg xmlns:xlink="http://www.w3.org/1999/xlink" width="576pt" height="576pt" viewBox="0 0 576 576" xmlns="http://www.w3.org/2000/svg" version="1.1">
 <metadata>
  <rdf:RDF xmlns:dc="http://purl.org/dc/elements/1.1/" xmlns:cc="http://creativecommons.org/ns#" xmlns:rdf="http://www.w3.org/1999/02/22-rdf-syntax-ns#">
   <cc:Work>
    <dc:type rdf:resource="http://purl.org/dc/dcmitype/StillImage"/>
    <dc:date>2026-09-08T11:57:19.070369</dc:date>
    <dc:format>image/svg+xml</dc:format>
    <dc:creator>
     <cc:Agent>
      <dc:title>Matplotlib v3.11.0, https://matplotlib.org/</dc:title>
     </cc:Agent>
    </dc:creator>
   </cc:Work>
  </rdf:RDF>
 </metadata>
 <defs>
  <style type="text/css">*{stroke-linejoin: round; stroke-linecap: butt}</style>
 </defs>
 <g id="figure_1">
  <g id="patch_1">
   <path d="M 0 576 
L 576 576 
L 576 0 
L 0 0 
z
" style="fill: #ffffff"/>
  </g>
  <g id="axes_1">
   <g id="LineCollection_1">
    <path d="M 434.331911 459.139819 
L 419.341813 517.090909 
" clip-path="url(#p40e0e692b4)" style="fill: none; stroke: #808080; stroke-opacity: 0.7"/>
    <path d="M 434.331911 459.139819 
L 427.522745 358.13275 
" clip-path="url(#p40e0e692b4)" style="fill: none; stroke: #808080; stroke-opacity: 0.7"/>
    <path d="M 309.339941 246.182073 
L 362.93187 246.105095 
" clip-path="url(#p40e0e692b4)" style="fill: none; stroke: #808080; stroke-opacity: 0.7"/>
    <path d="M 309.339941 246.182073 
L 254.798329 289.340688 
" clip-path="url(#p40e0e692b4)" style="fill: none; stroke: #808080; stroke-opacity: 0.7"/>
    <path d="M 309.339941 246.182073 
L 346.52035 212.209417 
" clip-path="url(#p40e0e692b4)" style="fill: none; stroke: #808080; stroke-opacity: 0.7"/>
    <path d="M 417.572795 253.020224 
L 427.522745 358.13275 
" clip-path="url(#p40e0e692b4)" style="fill: none; stroke: #808080; stroke-opacity: 0.7"/>
    <path d="M 417.572795 253.020224 
L 362.93187 246.105095 
" clip-path="url(#p40e0e692b4)" style="fill: none; stroke: #808080; stroke-opacity: 0.7"/>
    <path d="M 417.572795 253.020224 
L 463.374839 257.292465 
" clip-path="url(#p40e0e692b4)" style="fill: none; stroke: #808080; stroke-opacity: 0.7"/>
    <path d="M 417.572795 253.020224 
L 420.04942 154.283986 
" clip-path="url(#p40e0e692b4)" style="fill: none; stroke: #808080; stroke-opacity: 0.7"/>
    <path d="M 409.08151 78.371522 
L 420.04942 154.283986 
" clip-path="url(#p40e0e692b4)" style="fill: none; stroke: #808080; stroke-opacity: 0.7"/>
    <path d="M 409.08151 78.371522 
L 383.191779 58.909091 
" clip-path="url(#p40e0e692b4)" style="fill: none; stroke: #808080; stroke-opacity: 0.7"/>
    <path d="M 418.64662 446.5938 
L 465.187306 380.78974 
" clip-path="url(#p40e0e692b4)" style="fill: none; stroke: #808080; stroke-opacity: 0.7"/>
    <path d="M 418.64662 446.5938 
L 464.876952 464.460235 
" clip-path="url(#p40e0e692b4)" style="fill: none; stroke: #808080; stroke-opacity: 0.7"/>
    <path d="M 418.64662 446.5938 
L 419.341813 517.090909 
" clip-path="url(#p40e0e692b4)" style="fill: none; stroke: #808080; stroke-opacity: 0.7"/>
    <path d="M 418.64662 446.5938 
L 354.179887 423.963751 
" clip-path="url(#p40e0e692b4)" style="fill: none; stroke: #808080; stroke-opacity: 0.7"/>
    <path d="M 383.191779 58.909091 
L 389.616107 128.227165 
" clip-path="url(#p40e0e692b4)" style="fill: none; stroke: #808080; stroke-opacity: 0.7"/>
    <path d="M 446.83297 123.313446 
L 485.931367 184.638708 
" clip-path="url(#p40e0e692b4)" style="fill: none; stroke: #808080; stroke-opacity: 0.7"/>
    <path d="M 446.83297 123.313446 
L 389.616107 128.227165 
" clip-path="url(#p40e0e692b4)" style="fill: none; stroke: #808080; stroke-opacity: 0.7"/>
    <path d="M 493.193651 291.791133 
L 463.374839 257.292465 
" clip-path="url(#p40e0e692b4)" style="fill: none; stroke: #808080; stroke-opacity: 0.7"/>
    <path d="M 493.193651 291.791133 
L 485.931367 184.638708 
" clip-path="url(#p40e0e692b4)" style="fill: none; stroke: #808080; stroke-opacity: 0.7"/>
    <path d="M 493.193651 291.791133 
L 517.090909 360.288115 
" clip-path="url(#p40e0e692b4)" style="fill: none; stroke: #808080; stroke-opacity: 0.7"/>
    <path d="M 493.193651 291.791133 
L 465.187306 380.78974 
" clip-path="url(#p40e0e692b4)" style="fill: none; stroke: #808080; stroke-opacity: 0.7"/>
    <path d="M 502.882903 434.067024 
L 517.090909 360.288115 
" clip-path="url(#p40e0e692b4)" style="fill: none; stroke: #808080; stroke-opacity: 0.7"/>
    <path d="M 502.882903 434.067024 
L 464.876952 464.460235 
" clip-path="url(#p40e0e692b4)" style="fill: none; stroke: #808080; stroke-opacity: 0.7"/>
    <path d="M 389.616107 128.227165 
L 346.52035 212.209417 
" clip-path="url(#p40e0e692b4)" style="fill: none; stroke: #808080; stroke-opacity: 0.7"/>
    <path d="M 74.896667 320.927047 
L 58.909091 293.523122 
" clip-path="url(#p40e0e692b4)" style="fill: none; stroke: #808080; stroke-opacity: 0.7"/>
    <path d="M 74.896667 320.927047 
L 70.865168 261.988082 
" clip-path="url(#p40e0e692b4)" style="fill: none; stroke: #808080; stroke-opacity: 0.7"/>
    <path d="M 74.896667 320.927047 
L 111.20374 324.134435 
" clip-path="url(#p40e0e692b4)" style="fill: none; stroke: #808080; stroke-opacity: 0.7"/>
    <path d="M 212.025341 352.12852 
L 254.798329 289.340688 
" clip-path="url(#p40e0e692b4)" style="fill: none; stroke: #808080; stroke-opacity: 0.7"/>
    <path d="M 212.025341 352.12852 
L 247.529838 419.106483 
" clip-path="url(#p40e0e692b4)" style="fill: none; stroke: #808080; stroke-opacity: 0.7"/>
    <path d="M 212.025341 352.12852 
L 157.787876 344.969629 
" clip-path="url(#p40e0e692b4)" style="fill: none; stroke: #808080; stroke-opacity: 0.7"/>
    <path d="M 297.540282 443.926536 
L 247.529838 419.106483 
" clip-path="url(#p40e0e692b4)" style="fill: none; stroke: #808080; stroke-opacity: 0.7"/>
    <path d="M 297.540282 443.926536 
L 354.179887 423.963751 
" clip-path="url(#p40e0e692b4)" style="fill: none; stroke: #808080; stroke-opacity: 0.7"/>
    <path d="M 344.130625 323.031094 
L 354.179887 423.963751 
" clip-path="url(#p40e0e692b4)" style="fill: none; stroke: #808080; stroke-opacity: 0.7"/>
    <path d="M 344.130625 323.031094 
L 346.52035 212.209417 
" clip-path="url(#p40e0e692b4)" style="fill: none; stroke: #808080; stroke-opacity: 0.7"/>
    <path d="M 58.909091 293.523122 
L 70.865168 261.988082 
" clip-path="url(#p40e0e692b4)" style="fill: none; stroke: #808080; stroke-opacity: 0.7"/>
    <path d="M 70.865168 261.988082 
L 93.460802 267.19688 
" clip-path="url(#p40e0e692b4)" style="fill: none; stroke: #808080; stroke-opacity: 0.7"/>
    <path d="M 111.20374 324.134435 
L 93.460802 267.19688 
" clip-path="url(#p40e0e692b4)" style="fill: none; stroke: #808080; stroke-opacity: 0.7"/>
    <path d="M 111.20374 324.134435 
L 157.787876 344.969629 
" clip-path="url(#p40e0e692b4)" style="fill: none; stroke: #808080; stroke-opacity: 0.7"/>
   </g>
   <g id="PathCollection_1">
    <defs>
     <path id="ma1939a6117" d="M 0 7.416198 
C 1.966799 7.416198 3.853307 6.634781 5.244044 5.244044 
C 6.634781 3.853307 7.416198 1.966799 7.416198 0 
C 7.416198 -1.966799 6.634781 -3.853307 5.244044 -5.244044 
C 3.853307 -6.634781 1.966799 -7.416198 0 -7.416198 
C -1.966799 -7.416198 -3.853307 -6.634781 -5.244044 -5.244044 
C -6.634781 -3.853307 -7.416198 -1.966799 -7.416198 0 
C -7.416198 1.966799 -6.634781 3.853307 -5.244044 5.244044 
C -3.853307 6.634781 -1.966799 7.416198 0 7.416198 
z
" style="stroke: #808080"/>
    </defs>
    <g clip-path="url(#p40e0e692b4)">
     <use xlink:href="#ma1939a6117" x="434.331911" y="459.139819" style="fill: #808080; stroke: #808080"/>
     <use xlink:href="#ma1939a6117" x="309.339941" y="246.182073" style="fill: #808080; stroke: #808080"/>
     <use xlink:href="#ma1939a6117" x="417.572795" y="253.020224" style="fill: #808080; stroke: #808080"/>
     <use xlink:href="#ma1939a6117" x="409.08151" y="78.371522" style="fill: #808080; stroke: #808080"/>
     <use xlink:href="#ma1939a6117" x="418.64662" y="446.5938" style="fill: #808080; stroke: #808080"/>
     <use xlink:href="#ma1939a6117" x="383.191779" y="58.909091" style="fill: #808080; stroke: #808080"/>
     <use xlink:href="#ma1939a6117" x="446.83297" y="123.313446" style="fill: #808080; stroke: #808080"/>
     <use xlink:href="#ma1939a6117" x="493.193651" y="291.791133" style="fill: #808080; stroke: #808080"/>
     <use xlink:href="#ma1939a6117" x="502.882903" y="434.067024" style="fill: #808080; stroke: #808080"/>
     <use xlink:href="#ma1939a6117" x="419.341813" y="517.090909" style="fill: #808080; stroke: #808080"/>
     <use xlink:href="#ma1939a6117" x="362.93187" y="246.105095" style="fill: #808080; stroke: #808080"/>
     <use xlink:href="#ma1939a6117" x="420.04942" y="154.283986" style="fill: #808080; stroke: #808080"/>
     <use xlink:href="#ma1939a6117" x="465.187306" y="380.78974" style="fill: #808080; stroke: #808080"/>
     <use xlink:href="#ma1939a6117" x="464.876952" y="464.460235" style="fill: #808080; stroke: #808080"/>
     <use xlink:href="#ma1939a6117" x="427.522745" y="358.13275" style="fill: #808080; stroke: #808080"/>
     <use xlink:href="#ma1939a6117" x="485.931367" y="184.638708" style="fill: #808080; stroke: #808080"/>
     <use xlink:href="#ma1939a6117" x="463.374839" y="257.292465" style="fill: #808080; stroke: #808080"/>
     <use xlink:href="#ma1939a6117" x="517.090909" y="360.288115" style="fill: #808080; stroke: #808080"/>
     <use xlink:href="#ma1939a6117" x="389.616107" y="128.227165" style="fill: #808080; stroke: #808080"/>
     <use xlink:href="#ma1939a6117" x="74.896667" y="320.927047" style="fill: #808080; stroke: #808080"/>
     <use xlink:href="#ma1939a6117" x="212.025341" y="352.12852" style="fill: #808080; stroke: #808080"/>
     <use xlink:href="#ma1939a6117" x="297.540282" y="443.926536" style="fill: #808080; stroke: #808080"/>
     <use xlink:href="#ma1939a6117" x="344.130625" y="323.031094" style="fill: #808080; stroke: #808080"/>
     <use xlink:href="#ma1939a6117" x="58.909091" y="293.523122" style="fill: #808080; stroke: #808080"/>
     <use xlink:href="#ma1939a6117" x="70.865168" y="261.988082" style="fill: #808080; stroke: #808080"/>
     <use xlink:href="#ma1939a6117" x="254.798329" y="289.340688" style="fill: #808080; stroke: #808080"/>
     <use xlink:href="#ma1939a6117" x="346.52035" y="212.209417" style="fill: #808080; stroke: #808080"/>
     <use xlink:href="#ma1939a6117" x="247.529838" y="419.106483" style="fill: #808080; stroke: #808080"/>
     <use xlink:href="#ma1939a6117" x="354.179887" y="423.963751" style="fill: #808080; stroke: #808080"/>
     <use xlink:href="#ma1939a6117" x="111.20374" y="324.134435" style="fill: #808080; stroke: #808080"/>
     <use xlink:href="#ma1939a6117" x="93.460802" y="267.19688" style="fill: #808080; stroke: #808080"/>
     <use xlink:href="#ma1939a6117" x="157.787876" y="344.969629" style="fill: #808080; stroke: #808080"/>
    </g>
   </g>
  </g>
 </g>
 <defs>
  <clipPath id="p40e0e692b4">
   <rect x="10.8" y="10.8" width="554.4" height="554.4"/>
  </clipPath>
 </defs>
</svg>
