<?xml version="1.0" encoding="utf-8" standalone="no"?>
<!DOCTYPE svg PUBLIC "-//W3C//DTD SVG 1.1//EN"
  "http://www.w3.org/Graphics/SVG/1.1/DTD/svg11.dtd">
<svg xmlns:xlink="http://www.w3.org/1999/xlink" width="576pt" height="576pt" viewBox="0 0 576 576" xmlns="http://www.w3.org/2000/svg" version="1.1">
 <metadata>
  <rdf:RDF xmlns:dc="http://purl.org/dc/elements/1.1/" xmlns:cc="http://creativecommons.org/ns#" xmlns:rdf="http://www.w3.org/1999/02/22-rdf-syntax-ns#">
   <cc:Work>
    <dc:type rdf:resource="http://purl.org/dc/dcmitype/StillImage"/>
    <dc:date>2026-09-08T11:59:34.930121</dc:date>
    <dc:format>image/svg+xml</dc:format>
    <dc:creator>
     <cc:Agent>
      <dc:title>Matplotlib v3.11.0, https://matplotlib.org/</dc:title>
     </cc:Agent>
    </dc:creator>
   </cc:Work>
  </rdf:RDF>
 </metadata>
 <defs>
  <style type="text/css">*{stroke-linejoin: round; stroke-linecap: butt}</style>
 </defs>
 <g id="figure_1">
  <g id="patch_1">
   <path d="M 0 576 
L 576 576 
L 576 0 
L 0 0 
z
" style="fill: #ffffff"/>
  </g>
  <g id="axes_1">
   <g id="LineCollection_1">
    <path d="M 376.004555 125.397941 
L 311.425026 58.909091 
" clip-path="url(#p3f59be88e8)" style="fill: none; stroke: #808080; stroke-opacity: 0.6"/>
    <path d="M 376.004555 125.397941 
L 241.833901 181.00185 
" clip-path="url(#p3f59be88e8)" style="fill: none; stroke: #808080; stroke-opacity: 0.6"/>
    <path d="M 376.004555 125.397941 
L 385.106164 286.701229 
" clip-path="url(#p3f59be88e8)" style="fill: none; stroke: #808080; stroke-opacity: 0.6"/>
    <path d="M 311.425026 58.909091 
L 244.10359 242.501769 
" clip-path="url(#p3f59be88e8)" style="fill: none; stroke: #808080; stroke-opacity: 0.6"/>
    <path d="M 244.10359 242.501769 
L 385.106164 286.701229 
" clip-path="url(#p3f59be88e8)" style="fill: none; stroke: #808080; stroke-opacity: 0.6"/>
    <path d="M 244.10359 242.501769 
L 97.49534 251.64677 
" clip-path="url(#p3f59be88e8)" style="fill: none; stroke: #808080; stroke-opacity: 0.6"/>
    <path d="M 244.10359 242.501769 
L 181.892765 410.278298 
" clip-path="url(#p3f59be88e8)" style="fill: none; stroke: #808080; stroke-opacity: 0.6"/>
    <path d="M 385.106164 286.701229 
L 376.035021 454.838115 
" clip-path="url(#p3f59be88e8)" style="fill: none; stroke: #808080; stroke-opacity: 0.6"/>
    <path d="M 376.035021 454.838115 
L 468.559153 353.891003 
" clip-path="url(#p3f59be88e8)" style="fill: none; stroke: #808080; stroke-opacity: 0.6"/>
    <path d="M 376.035021 454.838115 
L 215.245018 517.090909 
" clip-path="url(#p3f59be88e8)" style="fill: none; stroke: #808080; stroke-opacity: 0.6"/>
    <path d="M 468.559153 353.891003 
L 517.090909 267.825751 
" clip-path="url(#p3f59be88e8)" style="fill: none; stroke: #808080; stroke-opacity: 0.6"/>
    <path d="M 468.559153 353.891003 
L 352.949686 218.274529 
" clip-path="url(#p3f59be88e8)" style="fill: none; stroke: #808080; stroke-opacity: 0.6"/>
    <path d="M 517.090909 267.825751 
L 352.949686 218.274529 
" clip-path="url(#p3f59be88e8)" style="fill: none; stroke: #808080; stroke-opacity: 0.6"/>
    <path d="M 352.949686 218.274529 
L 224.399941 300.249682 
" clip-path="url(#p3f59be88e8)" style="fill: none; stroke: #808080; stroke-opacity: 0.6"/>
    <path d="M 352.949686 218.274529 
L 241.833901 181.00185 
" clip-path="url(#p3f59be88e8)" style="fill: none; stroke: #808080; stroke-opacity: 0.6"/>
    <path d="M 352.949686 218.274529 
L 198.184263 71.806097 
" clip-path="url(#p3f59be88e8)" style="fill: none; stroke: #808080; stroke-opacity: 0.6"/>
    <path d="M 224.399941 300.249682 
L 97.49534 251.64677 
" clip-path="url(#p3f59be88e8)" style="fill: none; stroke: #808080; stroke-opacity: 0.6"/>
    <path d="M 97.49534 251.64677 
L 77.669829 429.343438 
" clip-path="url(#p3f59be88e8)" style="fill: none; stroke: #808080; stroke-opacity: 0.6"/>
    <path d="M 97.49534 251.64677 
L 58.909091 92.132901 
" clip-path="url(#p3f59be88e8)" style="fill: none; stroke: #808080; stroke-opacity: 0.6"/>
    <path d="M 77.669829 429.343438 
L 215.245018 517.090909 
" clip-path="url(#p3f59be88e8)" style="fill: none; stroke: #808080; stroke-opacity: 0.6"/>
    <path d="M 77.669829 429.343438 
L 110.831672 329.960625 
" clip-path="url(#p3f59be88e8)" style="fill: none; stroke: #808080; stroke-opacity: 0.6"/>
    <path d="M 215.245018 517.090909 
L 181.892765 410.278298 
" clip-path="url(#p3f59be88e8)" style="fill: none; stroke: #808080; stroke-opacity: 0.6"/>
    <path d="M 181.892765 410.278298 
L 110.831672 329.960625 
" clip-path="url(#p3f59be88e8)" style="fill: none; stroke: #808080; stroke-opacity: 0.6"/>
    <path d="M 110.831672 329.960625 
L 241.833901 181.00185 
" clip-path="url(#p3f59be88e8)" style="fill: none; stroke: #808080; stroke-opacity: 0.6"/>
    <path d="M 198.184263 71.806097 
L 58.909091 92.132901 
" clip-path="url(#p3f59be88e8)" style="fill: none; stroke: #808080; stroke-opacity: 0.6"/>
   </g>
   <g id="PathCollection_1">
    <defs>
     <path id="m6469f17796" d="M 0 6.324555 
C 1.677292 6.324555 3.286112 5.65816 4.472136 4.472136 
C 5.65816 3.286112 6.324555 1.677292 6.324555 0 
C 6.324555 -1.677292 5.65816 -3.286112 4.472136 -4.472136 
C 3.286112 -5.65816 1.677292 -6.324555 0 -6.324555 
C -1.677292 -6.324555 -3.286112 -5.65816 -4.472136 -4.472136 
C -5.65816 -3.286112 -6.324555 -1.677292 -6.324555 0 
C -6.324555 1.677292 -5.65816 3.286112 -4.472136 4.472136 
C -3.286112 5.65816 -1.677292 6.324555 0 6.324555 
z
" style="stroke: #808080; stroke-width: 0.5"/>
    </defs>
    <g clip-path="url(#p3f59be88e8)">
     <use xlink:href="#m6469f17796" x="376.004555" y="125.397941" style="fill: #808080; stroke: #808080; stroke-width: 0.5"/>
     <use xlink:href="#m6469f17796" x="311.425026" y="58.909091" style="fill: #808080; stroke: #808080; stroke-width: 0.5"/>
     <use xlink:href="#m6469f17796" x="244.10359" y="242.501769" style="fill: #808080; stroke: #808080; stroke-width: 0.5"/>
     <use xlink:href="#m6469f17796" x="385.106164" y="286.701229" style="fill: #808080; stroke: #808080; stroke-width: 0.5"/>
     <use xlink:href="#m6469f17796" x="376.035021" y="454.838115" style="fill: #808080; stroke: #808080; stroke-width: 0.5"/>
     <use xlink:href="#m6469f17796" x="468.559153" y="353.891003" style="fill: #808080; stroke: #808080; stroke-width: 0.5"/>
     <use xlink:href="#m6469f17796" x="517.090909" y="267.825751" style="fill: #808080; stroke: #808080; stroke-width: 0.5"/>
     <use xlink:href="#m6469f17796" x="352.949686" y="218.274529" style="fill: #808080; stroke: #808080; stroke-width: 0.5"/>
     <use xlink:href="#m6469f17796" x="224.399941" y="300.249682" style="fill: #808080; stroke: #808080; stroke-width: 0.5"/>
     <use xlink:href="#m6469f17796" x="97.49534" y="251.64677" style="fill: #808080; stroke: #808080; stroke-width: 0.5"/>
     <use xlink:href="#m6469f17796" x="77.669829" y="429.343438" style="fill: #808080; stroke: #808080; stroke-width: 0.5"/>
     <use xlink:href="#m6469f17796" x="215.245018" y="517.090909" style="fill: #808080; stroke: #808080; stroke-width: 0.5"/>
     <use xlink:href="#m6469f17796" x="181.892765" y="410.278298" style="fill: #808080; stroke: #808080; stroke-width: 0.5"/>
     <use xlink:href="#m6469f17796" x="110.831672" y="329.960625" style="fill: #808080; stroke: #808080; stroke-width: 0.5"/>
     <use xlink:href="#m6469f17796" x="241.833901" y="181.00185" style="fill: #808080; stroke: #808080; stroke-width: 0.5"/>
     <use xlink:href="#m6469f17796" x="198.184263" y="71.806097" style="fill: #808080; stroke: #808080; stroke-width: 0.5"/>
     <use xlink:href="#m6469f17796" x="58.909091" y="92.132901" style="fill: #808080; stroke: #808080; stroke-width: 0.5"/>
    </g>
   </g>
  </g>
 </g>
 <defs>
  <clipPath id="p3f59be88e8">
   <rect x="10.8" y="10.8" width="554.4" height="554.4"/>
  </clipPath>
 </defs>
</svg>
